<?xml version="1.0" encoding="UTF-8"?>
<svg id="b" data-name="Camada 2" xmlns="http://www.w3.org/2000/svg" width="132.32" height="133" viewBox="0 0 132.32 133">
  <defs>
    <style>
      .d {
        fill: #a2caff;
      }
    </style>
  </defs>
  <g id="c" data-name="Objects">
    <path class="d" d="m129.25,71.73l-1.06-19.24c1.05-.25,1.83-1.19,1.83-2.32,0-1.32-1.07-2.39-2.39-2.39-.04,0-.08.01-.12.01l-4.3-8.94c.37-.29.61-.73.61-1.23,0-.86-.7-1.56-1.56-1.56-.21,0-.41.04-.59.12l-6.24-9.6c.54-.44.89-1.1.89-1.85,0-1.32-1.07-2.39-2.39-2.39-.63,0-1.21.25-1.63.65l-9.07-7.75c.14-.23.22-.5.22-.79,0-.86-.7-1.56-1.56-1.56-.51,0-.97.25-1.25.63l-13.74-6.94c.1-.2.15-.43.15-.66,0-.86-.7-1.56-1.56-1.56-.77,0-1.4.56-1.54,1.29l-16.05-2.22c0-1.89-1.53-3.42-3.42-3.42-1.78,0-3.23,1.36-3.39,3.1l-12.81,2.45c-.17-.68-.78-1.19-1.51-1.19-.86,0-1.56.7-1.56,1.56,0,.24.06.47.16.68l-13.76,6.92c-.29-.38-.73-.62-1.24-.62-.86,0-1.56.7-1.56,1.56,0,.29.09.57.23.8l-9.09,7.73c-.43-.4-.99-.64-1.62-.64-1.32,0-2.39,1.07-2.39,2.39,0,.76.36,1.42.91,1.86l-6.25,9.59c-.18-.08-.38-.12-.6-.12-.86,0-1.56.7-1.56,1.56,0,.5.24.95.61,1.23l-4.3,8.94s-.08-.01-.12-.01c-1.32,0-2.39,1.07-2.39,2.39,0,1.14.8,2.08,1.86,2.32l-1.06,18.9c-1.7.2-3.02,1.63-3.02,3.38,0,1.89,1.53,3.42,3.42,3.42.17,0,.33-.03.5-.05l5.61,17.68c-.27.39-.42.85-.42,1.35,0,1.32,1.07,2.39,2.39,2.39.02,0,.04,0,.07,0l6.85,9.23c-.01.09-.03.18-.03.27,0,.86.7,1.56,1.56,1.56.04,0,.07,0,.1-.01l15.68,11.54c-.04.18-.07.37-.07.57,0,1.32,1.07,2.39,2.39,2.39.72,0,1.36-.33,1.8-.83l14.33,4.64c-.04.21-.07.43-.07.65,0,1.89,1.53,3.42,3.42,3.42,1.72,0,3.13-1.27,3.37-2.93l11.42-.04c.24,1.06,1.19,1.85,2.32,1.85,1.32,0,2.39-1.07,2.39-2.39,0-.08-.02-.15-.02-.23l15.39-4.96c.44.49,1.07.81,1.78.81,1.32,0,2.39-1.07,2.39-2.39,0-.2-.03-.4-.08-.59l15.37-11.26c.13.03.27.05.42.05,1.03,0,1.86-.83,1.86-1.86,0-.21-.04-.4-.1-.59l6.66-8.91s.03,0,.04,0c1.32,0,2.39-1.07,2.39-2.39,0-.51-.17-.99-.44-1.38l5.53-17.34c.22.05.45.07.69.07,1.89,0,3.42-1.53,3.42-3.42,0-1.77-1.35-3.21-3.08-3.39Zm-7.16-32.56s.06,0,.09,0l3.93,9.16c-.22.18-.4.39-.54.63-1.92-.5-4.68-1.23-7.47-1.96,1.66-3.25,3.2-6.29,3.99-7.84Zm-3.73,58.1l-7.64.9-1.75-9.06,9.55,7.21c-.11.27-.17.56-.17.87,0,.03,0,.06,0,.08Zm-22.67,2.88c0,.38.1.73.25,1.05l-10.74,6.85c-.29-.38-.74-.63-1.25-.63-.86,0-1.56.7-1.56,1.56,0,.05,0,.09.01.14l-15.21,2.64c-.17-1.15-1.15-2.04-2.35-2.04s-2.19.89-2.35,2.05l-12.67-2.59c0-.06.02-.13.02-.19,0-.86-.7-1.56-1.56-1.56-.51,0-.96.25-1.25.63l-10.74-6.85c.16-.32.25-.67.25-1.05,0-1.32-1.07-2.39-2.39-2.39-.42,0-.81.12-1.16.31l-7.11-9.59c.23-.3.37-.67.37-1.08,0-.99-.8-1.8-1.8-1.8,0,0,0,0-.01,0l-3.8-12.52c.57-.3.96-.89.96-1.58,0-.81-.54-1.49-1.29-1.71l.53-9.63c1.07-.23,1.88-1.19,1.88-2.33,0-.84-.44-1.58-1.09-2l2.97-9.74c.7-.15,1.23-.78,1.23-1.53,0-.21-.04-.4-.12-.59l10.18-12.05c.25.09.52.15.8.15,1.32,0,2.39-1.07,2.39-2.39,0-.13-.02-.25-.04-.37l19.29-8.19c.34.42.86.7,1.44.7.79,0,1.46-.49,1.73-1.18h9.23c.27.69.94,1.18,1.73,1.18.59,0,1.1-.28,1.44-.7l19.91,8.45s0,.02,0,.03c0,.86.7,1.56,1.56,1.56.1,0,.2-.01.3-.03l9.93,11.76c-.4.43-.65,1-.65,1.63,0,1.32,1.07,2.39,2.39,2.39.18,0,.36-.03.53-.06l2.99,9.81c-.39.28-.65.74-.65,1.26,0,.72.48,1.31,1.14,1.5l.57,10.38c-.74.22-1.29.9-1.29,1.71,0,.69.39,1.28.96,1.58l-3.8,12.52s0,0-.01,0c-.99,0-1.8.8-1.8,1.8,0,.41.14.78.37,1.08l-7.11,9.59c-.34-.19-.74-.31-1.16-.31-1.32,0-2.39,1.07-2.39,2.39Zm1.59,2.24l-1.18,6.45h-10.3l10.78-6.84c.21.17.44.3.7.4Zm-14.18,7.9l-3.41,7.03-12.6-4.41s.02-.06.03-.1l15.72-2.73c.08.08.16.15.26.21Zm-20.54,2.53l-10.26,4.01-3.17-6.54c.09-.06.17-.12.25-.2l13.18,2.73Zm-16.19-3.98h-10.25l-1.18-6.45c.27-.09.51-.23.72-.41l10.7,6.86Zm-32.66-12.52l9.55-7.21-1.75,9.06-7.64-.9s0-.06,0-.08c0-.31-.06-.6-.17-.87Zm-6.75-46.38c2.17-.57,4.93-1.3,7.63-2.01,1.52,2.98,3.08,6.02,4.16,8.1-.5.44-.82,1.07-.82,1.79,0,.5.16.97.42,1.35l-3.86,3.9-7.99-11.5c.29-.4.47-.88.47-1.41,0-.08-.02-.16-.02-.24Zm12.69,5.61c-1.06-2.03-2.56-4.96-4.05-7.88,3.06-.8,5.92-1.55,7.58-1.98.12.12.26.21.41.28l-2.93,9.51c-.11-.02-.23-.03-.35-.03-.24,0-.46.04-.67.11Zm.18,4.62l-.54,9.62s-.08.02-.11.03l-4.09-5.89,4.01-4.06c.22.13.47.24.73.29Zm-1.47,10.26c-.23.3-.37.67-.37,1.08,0,.02,0,.04,0,.07l-11.28,2.37c-.1-.38-.25-.75-.46-1.06l8.11-8.21,4,5.76Zm-11.54,4.53l11.51-2.42c.12.16.26.3.42.42l-2.99,9.04-9.35-5.6c.23-.43.38-.92.4-1.44Zm12.85-1.54l3.79,12.49c-.18.12-.33.27-.46.44l-6.35-3.81,3.01-9.12Zm4.6,15.77c.06,0,.11.02.17.02.23,0,.44-.05.64-.12l7.14,9.67c-.14.2-.25.41-.33.65l-9.38-1.1,1.76-9.11Zm-2.16-54.38l12.76-3.58c.04.05.08.1.13.15l-9.99,11.83c-.11-.06-.23-.11-.36-.15l-2.55-8.25Zm16.01-7.02l4.36-10.35,15.1,2.89-18.92,8.03c-.15-.22-.33-.41-.54-.57Zm36.49-7.46l15.1-2.89,4.62,10.98c-.07.06-.14.13-.19.2l-19.53-8.29Zm22.36,10.8l13.11,3.67-2.28,7.37c-.16-.03-.32-.05-.49-.05-.33,0-.65.07-.93.19l-9.41-11.19Zm15.14,25.27c-.1-.02-.21-.04-.32-.04l-3.02-9.96c.22-.17.42-.38.57-.62,1.7.44,4.39,1.14,7.27,1.9-1.71,3.36-3.44,6.72-4.49,8.72Zm.4,2.88l4.6,4.66-4.09,5.89s-.07-.02-.11-.03l-.57-10.43c.06-.02.11-.06.17-.09Zm-5.37,29.81c.19.07.4.12.62.12.06,0,.12-.01.17-.02l1.76,9.11-9.38,1.1c-.08-.24-.2-.47-.35-.67l7.18-9.64Zm1.58-3.19l3.81-12.48,3.02,9.12-6.35,3.81c-.13-.18-.29-.33-.48-.45Zm4.73-12.93c.16-.12.3-.26.42-.42l11.59,2.43s-.01.1-.01.15c0,.47.09.91.26,1.32l-9.27,5.56-2.99-9.04Zm12.21,1.02l-11.46-2.41s0-.04,0-.07c0-.41-.14-.78-.37-1.08l4-5.76,8.3,8.41c-.2.27-.37.58-.48.9Zm-7.96-10.89l-4.51-4.56c.08-.19.12-.39.12-.61,0-.37-.13-.7-.35-.97,1.07-2.04,2.87-5.55,4.64-9.01,2.7.71,5.46,1.44,7.63,2.01,0,.08-.02.16-.02.24,0,.53.18,1.01.47,1.41l-7.99,11.5Zm-.63-16.34c-2.86-.75-5.62-1.47-7.4-1.93.01-.1.03-.2.03-.3,0-.78-.38-1.47-.97-1.91l2.33-7.53,9.63,2.7c.04.38.2.72.46.97-.8,1.58-2.39,4.71-4.07,8.01Zm-3.17-19.63c.2,0,.4-.03.59-.08l6.33,9.73-9.47-2.65,2.17-7.03c.12.02.25.04.37.04Zm-1.32-.4l-2.2,7.12-13.37-3.75,14.71-4.39c.18.41.48.77.85,1.01Zm-10.94-10.72c.07.01.14.02.22.02.2,0,.39-.04.56-.11l9.28,7.91c-.11.27-.18.57-.18.89l-14.7,4.38c-.11-.31-.31-.58-.57-.77l5.39-12.32Zm-.91-.46l-5.46,12.49-4.54-10.79,9.85-1.88c.05.07.1.13.15.19Zm-.61-1.13l-9.8,1.88-3.64-8.66,13.44,6.78Zm-15.26-7.04c.18.07.38.12.59.12.02,0,.05,0,.07,0l3.79,9-15.12,2.89c-.05-.17-.12-.32-.22-.47,2.81-2.96,8.59-9.1,10.9-11.54Zm-17.16-2.95l16.38,2.25s.01.02.02.03c-2.32,2.46-8.15,8.64-10.92,11.56-.23-.1-.49-.16-.76-.16-.13,0-.26.01-.39.04-1.61-3.08-4.02-8.51-5.54-12,.56-.43.98-1.03,1.2-1.72Zm-3.26,2.43c.41,0,.8-.08,1.17-.22,1.52,3.5,3.91,8.87,5.54,11.98-.28.26-.47.61-.55,1.01h-9.03c-.1-.53-.42-.98-.87-1.25.93-3.26,2.38-8.33,3.3-11.56.15.02.29.04.44.04Zm-16.31-.25l12.96-2.48c.22,1.08.96,1.96,1.93,2.41-.92,3.23-2.37,8.31-3.3,11.56-.26,0-.51.06-.73.16-2.77-2.93-8.6-9.11-10.92-11.56.02-.03.04-.06.05-.09Zm-1.47.88s.05,0,.07,0c.21,0,.41-.04.59-.12,2.3,2.44,8.09,8.58,10.9,11.54-.1.14-.17.3-.22.47l-15.12-2.89,3.79-9Zm-1.16.15l-3.64,8.66-9.8-1.88,13.44-6.78Zm-13.89,7.73l9.85,1.88-4.25,10.11c-.17-.04-.35-.06-.53-.06-.03,0-.05,0-.08,0l-5.14-11.75c.06-.06.11-.12.15-.19Zm-1.84.56c.17.07.36.11.56.11.07,0,.14-.01.22-.02l5.05,11.55c-.52.26-.94.71-1.15,1.26l-13.78-4.11c0-.31-.07-.61-.18-.89l9.28-7.91Zm-9.31,9.79l13.84,4.13c.01.17.04.33.08.48l-12.57,3.52-2.2-7.12c.37-.25.67-.6.85-1.01Zm-2.76,1.34c.19.05.38.08.59.08.13,0,.25-.02.37-.04l2.17,7.03-9.46,2.65,6.32-9.72Zm-6.19,10.74l9.63-2.7,2.49,8.05c-.55.24-.94.79-.94,1.43,0,.07.01.14.02.21-1.77.46-4.63,1.21-7.58,1.98-1.68-3.3-3.27-6.42-4.07-8.01.26-.25.42-.59.46-.97Zm-1.48,1.41s.07,0,.1-.01c.78,1.55,2.33,4.59,3.99,7.84-2.79.73-5.56,1.46-7.47,1.96-.14-.24-.33-.45-.54-.63l3.93-9.16Zm-4.98,13.34c.25-.05.48-.14.69-.26l8.03,11.56-8.21,8.31c-.44-.36-.97-.61-1.55-.72l1.04-18.9Zm6.48,42.28s-.03,0-.04,0c-.41,0-.8.11-1.14.3l-5.47-17.23c.35-.17.67-.38.94-.65l9.62,5.77-3.91,11.82Zm4.8-11.28l6.33,3.79s0,.06,0,.09c0,.27.07.53.17.76l-9.68,7.31c-.18-.18-.39-.32-.62-.43l3.81-11.52Zm3.37,24.01c-.28.04-.53.16-.73.33l-6.38-8.56c.44-.23.8-.59,1.02-1.03l7.7.9-1.61,8.36Zm1,.18l1.63-8.42,9.46,1.11c.12,1.13,1.02,2.02,2.15,2.12l1.15,6.32h-13.61c-.07-.49-.37-.9-.79-1.13Zm15.48,13.53l-15.11-11.09c.08-.09.15-.19.22-.29h13.98l1.94,10.64c-.41.15-.76.41-1.03.75Zm2.04-.88l-1.92-10.5h10.66c.04.05.08.1.12.15l-8.17,10.5c-.22-.09-.45-.13-.69-.15Zm1.54.72l8.22-10.56s.09,0,.14.01l3.24,6.67-11.22,4.39c-.1-.19-.22-.36-.37-.51Zm14.76,6.9l-14.2-4.58c.06-.21.11-.44.11-.67,0-.05-.01-.1-.02-.16l11.38-4.45,4.11,8.46c-.59.32-1.07.8-1.39,1.4Zm3.01-1.82c-.23,0-.45.02-.67.07l-4.11-8.47,10.33-4.04c.12.14.26.26.41.37l-5.08,12.2c-.28-.07-.57-.13-.88-.13Zm14.78,2.86l-11.41.04c-.15-1-.74-1.86-1.56-2.38l5.08-12.22c.14.02.28.04.42.04.23,0,.45-.04.66-.1l7.56,13.32c-.37.34-.65.78-.75,1.29Zm2.34-1.91c-.25,0-.48.05-.71.12l-7.55-13.3s.1-.08.15-.13l12.7,4.45-4.32,8.89c-.09-.01-.18-.03-.27-.03Zm2.06,1.19c-.2-.34-.48-.63-.82-.84l4.31-8.88,11.6,4.07s0,.05,0,.08c0,.24.04.46.11.67l-15.19,4.9Zm15.35-6.64l-11.41-4,3.46-7.12s.09,0,.14-.01l8.22,10.56c-.16.17-.3.37-.4.58Zm1.94-1.3c-.24.02-.48.07-.69.15l-8.17-10.5s.09-.1.12-.15h10.66l-1.92,10.5Zm2.04.88c-.27-.34-.62-.6-1.03-.75l1.94-10.64h13.65c.08.17.19.33.31.47l-14.87,10.92Zm14.4-12.4h-13.31l1.15-6.32c1.14-.1,2.03-.99,2.15-2.12l9.46-1.11,1.57,8.12c-.55.27-.94.8-1.02,1.43Zm2.99-1.22c-.27-.22-.6-.36-.97-.39l-1.56-8.06,7.7-.9c.23.44.58.8,1.02,1.03l-6.2,8.32Zm5.64-12.15l-9.68-7.31c.11-.23.17-.49.17-.76,0-.03,0-.06,0-.09l6.33-3.79,3.81,11.52c-.23.11-.44.25-.62.43Zm2.79-.37c-.34-.18-.72-.3-1.14-.3-.01,0-.03,0-.04,0l-3.91-11.82,9.49-5.69c.28.33.61.61.99.81l-5.39,16.98Zm5.01-22.74l-8.43-8.54,8.03-11.56c.21.12.44.21.69.26l1.06,19.24c-.5.1-.95.31-1.35.6Z"/>
  </g>
</svg>