<?xml version="1.0" encoding="UTF-8"?>
<svg id="b" data-name="Camada 2" xmlns="http://www.w3.org/2000/svg" width="1844.94" height="1152.58" xmlns:xlink="http://www.w3.org/1999/xlink" viewBox="0 0 1844.94 1152.58">
  <defs>
    <style>
      .f {
        opacity: .13;
      }

      .g {
        opacity: .18;
      }

      .h {
        opacity: .45;
      }

      .h, .i, .j, .k, .l, .m, .n, .o, .p, .q, .r, .s, .t, .u, .v, .w, .x, .y, .z, .aa, .ab, .ac, .ad, .ae, .af, .ag, .ah, .ai, .aj, .ak, .al, .am, .an, .ao, .ap, .aq, .ar, .as {
        fill: #fff;
      }

      .j {
        opacity: .34;
      }

      .k, .at {
        opacity: .47;
      }

      .l, .au {
        opacity: .38;
      }

      .av {
        opacity: .04;
      }

      .aw, .x {
        opacity: .24;
      }

      .m {
        opacity: .4;
      }

      .n, .ax {
        opacity: .39;
      }

      .o, .ay {
        opacity: .23;
      }

      .p, .az {
        opacity: .3;
      }

      .ba, .al {
        opacity: .28;
      }

      .bb {
        opacity: .06;
      }

      .q {
        opacity: .56;
      }

      .r {
        opacity: .52;
      }

      .bc, .af {
        opacity: .33;
      }

      .bd {
        opacity: .02;
      }

      .s, .be {
        opacity: .21;
      }

      .bf {
        opacity: .2;
      }

      .t, .bg {
        opacity: .26;
      }

      .u, .bh {
        opacity: .49;
      }

      .v {
        opacity: .5;
      }

      .bi, .ad {
        opacity: .29;
      }

      .bj {
        opacity: .05;
      }

      .w {
        opacity: .48;
      }

      .bk {
        opacity: .08;
      }

      .bl, .ai {
        opacity: .35;
      }

      .bm {
        opacity: .07;
      }

      .y {
        opacity: .42;
      }

      .bn, .aj {
        opacity: .22;
      }

      .z {
        opacity: .55;
      }

      .bo {
        opacity: .11;
      }

      .aa {
        opacity: .57;
      }

      .bp {
        fill: url(#e);
      }

      .bq {
        opacity: .15;
      }

      .br {
        opacity: .19;
      }

      .ab {
        opacity: .43;
      }

      .bs {
        opacity: .32;
      }

      .ac {
        opacity: .37;
      }

      .bt {
        opacity: .03;
      }

      .ae {
        opacity: .44;
      }

      .bu {
        opacity: .16;
      }

      .bv {
        opacity: .1;
      }

      .ag, .bw {
        opacity: .25;
      }

      .bx {
        opacity: 0;
      }

      .by {
        mask: url(#d);
      }

      .ah {
        opacity: .53;
      }

      .bz {
        opacity: .12;
      }

      .ak {
        opacity: .46;
      }

      .ca {
        opacity: .14;
      }

      .cb, .ap {
        opacity: .36;
      }

      .am {
        opacity: .59;
      }

      .an {
        opacity: .58;
      }

      .ao {
        opacity: .31;
      }

      .cc {
        opacity: .17;
      }

      .cd {
        opacity: .09;
      }

      .aq, .ce {
        opacity: .27;
      }

      .ar {
        opacity: .41;
      }

      .as {
        opacity: .51;
      }
    </style>
    <radialGradient id="e" cx="450.51" cy="554.1" fx="450.51" fy="554.1" r="628.64" gradientUnits="userSpaceOnUse">
      <stop offset=".14" stop-color="#1c1c1c"/>
      <stop offset=".22" stop-color="#262626"/>
      <stop offset=".34" stop-color="#414141"/>
      <stop offset=".5" stop-color="#6e6e6e"/>
      <stop offset=".69" stop-color="#adadad"/>
      <stop offset=".9" stop-color="#fbfbfb"/>
      <stop offset=".91" stop-color="#fff"/>
    </radialGradient>
    <mask id="d" data-name="mask" x="-14.81" y="-15.31" width="1910.25" height="1154.11" maskUnits="userSpaceOnUse">
      <rect class="bp" x="-14.81" y="-15.31" width="1910.25" height="1154.11"/>
    </mask>
  </defs>
  <g id="c" data-name="Camada 1">
    <g class="by">
      <g class="at">
        <g class="bd">
          <path class="i" d="M1814.7,182.17l30.24,17.24v-.16l-30.17-17.2s-.05-.01-.07,0c0,0-.01,.01-.02,.02-.02,.03,0,.08,.03,.09Z"/>
        </g>
        <g class="bd">
          <path class="i" d="M1814.03,448.23l30.91-19.09v-.16l-30.99,19.14h0s-.04,.06-.02,.1c.02,.03,.06,.04,.1,.02Z"/>
        </g>
        <g class="bz">
          <path class="i" d="M1813.65,447.69c.09-.06,.2-.1,.31-.11,.33-.01,.6,.24,.62,.57l7.65,188.18c.02,.33-.24,.6-.57,.62-.33,.01-.6-.24-.62-.57l-7.65-188.18c0-.21,.09-.4,.25-.51Z"/>
        </g>
        <g class="bt">
          <path class="i" d="M1821.55,636.22c.06-.04,.15-.04,.21,.02,.06,.06,.06,.16,0,.22l-153.69,149.57c-.05,.06-.16,.06-.22,0-.06-.06-.06-.16,0-.22l153.69-149.57s.01-.01,.02-.02Z"/>
        </g>
        <g class="ba">
          <path class="i" d="M1820.84,635.22c.16-.11,.34-.19,.54-.23,.75-.14,1.48,.36,1.62,1.11l21.39,115.08c.14,.75-.35,1.48-1.11,1.62-.75,.14-1.48-.36-1.62-1.11l-21.39-115.08c-.1-.55,.14-1.09,.57-1.39Z"/>
        </g>
        <g class="g">
          <path class="i" d="M1667.42,785.16c.1-.07,.22-.13,.36-.15l175.08-34.49c.5-.1,.99,.23,1.09,.73,.1,.5-.23,1-.73,1.09l-175.08,34.49c-.5,.1-.99-.23-1.09-.73-.07-.37,.09-.74,.38-.94Z"/>
        </g>
        <g class="av">
          <path class="i" d="M1438.28,0l39.83,135.65c.03,.1,.13,.15,.23,.12,.1-.03,.15-.13,.12-.23L1438.66,0h-.38Z"/>
        </g>
        <g class="bt">
          <path class="i" d="M1478.2,135.49s.03-.02,.04-.02l114.32-30.31c.07-.02,.15,.02,.17,.1,.02,.07-.02,.15-.1,.17l-114.32,30.31c-.07,.02-.15-.02-.17-.1-.02-.06,0-.11,.05-.15Z"/>
        </g>
        <g class="br">
          <path class="i" d="M1477.73,134.82c.08-.05,.16-.1,.25-.13,.5-.16,1.04,.11,1.2,.61l45.12,137.45c.17,.5-.1,1.04-.61,1.2-.5,.16-1.04-.11-1.2-.61l-45.12-137.45c-.13-.41,.02-.84,.36-1.08Z"/>
        </g>
        <g class="ba">
          <path class="i" d="M1522.56,271.87c.66-.46,1.56-.3,2.02,.35l43.02,60.86c.46,.66,.31,1.56-.35,2.03,0,0,0,0,0,0-.66,.46-1.56,.3-2.02-.35l-43.02-60.86c-.46-.66-.31-1.56,.35-2.03,0,0,0,0,0,0Z"/>
        </g>
        <g class="cd">
          <path class="i" d="M941.6,71.6c.2-.14,.48-.15,.7,0,.28,.19,.36,.57,.17,.85l-33.63,49.97c-.19,.28-.57,.36-.85,.17-.28-.19-.36-.57-.17-.85l33.63-49.97c.04-.06,.1-.12,.16-.16Z"/>
        </g>
        <g class="bt">
          <path class="i" d="M941.84,71.93s.04-.02,.07-.03l68.33-17.48c.11-.03,.22,.04,.25,.15,.03,.11-.04,.22-.15,.25l-68.33,17.48c-.11,.03-.22-.04-.25-.15-.02-.09,.01-.17,.08-.22Z"/>
        </g>
        <g class="bt">
          <path class="i" d="M851.24,50.46s.07-.03,.11-.03l158.94,4.01c.1,0,.18,.09,.18,.19,0,.1-.09,.18-.19,.18l-158.94-4.01c-.1,0-.18-.09-.18-.19,0-.06,.03-.11,.08-.14Z"/>
        </g>
        <g class="g">
          <path class="i" d="M907.7,121.17s.02,0,.03-.02l101.96-67.44c.5-.33,1.18-.19,1.51,.31,.33,.49,.2,1.16-.28,1.49,0,0-.02,0-.03,.02l-101.96,67.44c-.5,.33-1.18,.19-1.51-.31-.33-.49-.2-1.16,.28-1.49Z"/>
        </g>
        <g class="ca">
          <path class="i" d="M1009.78,53.91c.32-.22,.76-.21,1.06,.06l86.19,74.86c.36,.31,.4,.86,.09,1.22-.3,.37-.86,.4-1.22,.09l-86.19-74.86c-.36-.31-.4-.86-.09-1.22,.05-.06,.1-.1,.15-.14Z"/>
        </g>
        <g class="bx">
          <path class="i" d="M1096.42,129.4s.1-.02,.13,.02c.03,.04,.02,.1-.02,.13l-155.74,111.7h0s-.1,.02-.13-.02c-.03-.04-.02-.1,.02-.13l155.74-111.7h0Z"/>
        </g>
        <g class="br">
          <path class="i" d="M1095.81,128.53c.5-.35,1.19-.25,1.57,.23l79.62,100.07c.4,.5,.32,1.23-.19,1.63-.45,.4-1.23,.32-1.63-.19l-79.62-100.07c-.4-.5-.32-1.23,.19-1.63,.02-.01,.04-.03,.06-.04Z"/>
        </g>
        <g class="bg">
          <path class="i" d="M1175.21,228.28c.61-.43,1.46-.36,2,.19l69.91,72.09c.59,.61,.58,1.59-.03,2.19-.61,.6-1.59,.58-2.19-.03l-69.91-72.09c-.59-.61-.58-1.59,.03-2.19,.06-.06,.12-.11,.19-.15Z"/>
        </g>
        <g class="bd">
          <path class="i" d="M1176.03,229.46s.08-.03,.12,0l131.59,78.69c.05,.03,.07,.1,.04,.15-.03,.06-.1,.07-.15,.04l-131.59-78.69c-.05-.03-.07-.1-.04-.15,0-.02,.02-.03,.03-.03Z"/>
        </g>
        <g class="bi">
          <path class="i" d="M1245.02,300.25c.33-.23,.73-.35,1.16-.3l61.69,6.6c.94,.1,1.61,.94,1.51,1.88-.1,.94-.94,1.61-1.88,1.51l-61.69-6.6c-.94-.1-1.61-.94-1.51-1.88,.05-.51,.33-.94,.72-1.21Z"/>
        </g>
        <g class="av">
          <path class="i" d="M928.1,550.45c.06-.04,.13-.06,.2-.05,.16,.02,.28,.16,.26,.33l-10.47,91.59c-.02,.16-.16,.28-.33,.26-.16-.02-.28-.16-.26-.33l10.47-91.59c.01-.09,.06-.16,.12-.21Z"/>
        </g>
        <g class="bx">
          <path class="i" d="M802.74,519.41s.02,0,.04,0l125.51,31.25s.04,.03,.03,.05c0,.03-.03,.04-.06,.03l-125.51-31.25s-.04-.03-.03-.05c0-.01,0-.02,.02-.03Z"/>
        </g>
        <g class="ca">
          <path class="i" d="M829.21,522.09c.23-.16,.53-.22,.83-.14l98.5,27.8c.52,.15,.82,.69,.68,1.21-.15,.52-.69,.82-1.21,.68l-98.5-27.8c-.52-.15-.82-.69-.68-1.21,.06-.22,.2-.41,.38-.53Z"/>
        </g>
        <g class="bd">
          <path class="i" d="M928.18,550.56s.11-.04,.16-.01l89.6,46.05c.08,.04,.11,.14,.07,.21-.04,.08-.14,.11-.21,.07l-89.6-46.05c-.08-.04-.11-.14-.07-.21,.01-.02,.03-.04,.05-.06Z"/>
        </g>
        <g class="br">
          <path class="i" d="M927.5,549.6c.2-.14,.44-.23,.7-.24l35.59-1.83c.74-.04,1.37,.53,1.41,1.27,.04,.74-.53,1.37-1.27,1.41l-35.59,1.83c-.74,.04-1.37-.53-1.41-1.27-.02-.48,.2-.91,.57-1.17Z"/>
        </g>
        <g class="bd">
          <path class="i" d="M802.69,519.33s.07-.03,.1-.02l161.1,29.42c.07,.01,.12,.08,.11,.16-.01,.08-.09,.12-.16,.11l-161.1-29.42c-.07-.01-.12-.08-.11-.16,0-.04,.03-.07,.06-.09Z"/>
        </g>
        <g class="aw">
          <path class="i" d="M962.94,547.55c.6-.42,1.43-.39,2,.11l54.01,47.88c.67,.59,.73,1.61,.14,2.28-.59,.67-1.61,.73-2.28,.14l-54.01-47.87c-.67-.59-.73-1.61-.14-2.28,.09-.1,.18-.18,.28-.25Z"/>
        </g>
        <g class="av">
          <path class="i" d="M963.71,548.64c.1-.07,.23-.07,.33,.01l121.61,97.52c.12,.09,.14,.26,.04,.38-.08,.12-.26,.14-.38,.04l-121.61-97.52c-.12-.09-.14-.26-.04-.38,.02-.02,.03-.04,.06-.05Z"/>
        </g>
        <g class="bt">
          <path class="i" d="M1017.77,596.59s.11-.04,.17-.02l141.81,50.18c.09,.03,.14,.14,.11,.23-.04,.09-.14,.14-.23,.11l-141.81-50.18c-.09-.03-.14-.14-.11-.23,.01-.04,.04-.07,.07-.09Z"/>
        </g>
        <g class="bw">
          <path class="i" d="M1016.92,595.38c.57-.4,1.35-.41,1.94,.02l67.61,49.65c.74,.54,.9,1.58,.36,2.32-.55,.74-1.58,.9-2.32,.36l-67.61-49.65c-.74-.54-.9-1.58-.36-2.32,.11-.15,.24-.28,.38-.38Z"/>
        </g>
        <g class="bd">
          <path class="i" d="M1085.4,646.28s.07-.03,.11-.02l142.79,34.48c.07,.02,.12,.09,.1,.17-.02,.07-.09,.12-.17,.1l-142.79-34.48c-.07-.02-.12-.09-.1-.17,0-.03,.03-.06,.05-.08Z"/>
        </g>
        <g class="bn">
          <path class="i" d="M1084.67,645.24c.23-.16,.51-.26,.82-.25l74.2,.53c.78,0,1.4,.64,1.4,1.42,0,.78-.64,1.4-1.42,1.4l-74.2-.53c-.78,0-1.4-.64-1.4-1.42,0-.47,.24-.89,.6-1.14Z"/>
        </g>
        <g class="bx">
          <path class="i" d="M1159.65,646.88s.03-.01,.05,0l68.59,33.95s.03,.04,.02,.06c0,.02-.03,.03-.06,.02l-68.59-33.95s-.03-.04-.02-.06c0,0,0-.01,.01-.02Z"/>
        </g>
        <g class="bz">
          <path class="i" d="M765.97,853.43c.17-.12,.39-.18,.62-.15,.47,.07,.8,.5,.73,.98l-9.95,69.31c-.07,.47-.51,.8-.98,.73-.47-.07-.8-.51-.73-.98l9.95-69.31c.03-.24,.17-.45,.36-.58Z"/>
        </g>
        <g class="bn">
          <path class="i" d="M765.6,852.91c.45-.32,1.06-.37,1.57-.09l17.07,9.19c.73,.39,1,1.3,.61,2.03-.4,.73-1.3,1-2.03,.61l-17.07-9.19c-.73-.39-1-1.3-.61-2.03,.11-.21,.27-.39,.46-.52Z"/>
        </g>
        <g class="bx">
          <path class="i" d="M766.41,854.06s.1-.02,.13,.03l49.94,81.54s.01,.1-.02,.12c0,0,0,0,0,0-.04,.03-.1,.01-.12-.03l-49.94-81.54s-.01-.1,.02-.12Z"/>
        </g>
        <g class="be">
          <path class="i" d="M782.72,862.18c.07-.05,.15-.09,.23-.13,.71-.32,1.54,0,1.87,.7l32.87,72.35c.32,.71,0,1.54-.7,1.87-.71,.32-1.54,0-1.87-.7l-32.87-72.35c-.29-.63-.07-1.35,.47-1.74Z"/>
        </g>
        <g class="cc">
          <path class="i" d="M815.77,934.79s.06-.04,.1-.06c.53-.29,1.19-.11,1.48,.42l59.66,106.82c.29,.52,.09,1.16-.42,1.48-.53,.29-1.19,.11-1.48-.42l-59.66-106.82c-.27-.49-.13-1.11,.32-1.42Z"/>
        </g>
        <g class="bx">
          <path class="i" d="M876.01,1042.43s0,0,0,0l138.12-85.17s.1-.01,.12,.03c.03,.04,.02,.1-.02,.12,0,0,0,0,0,0l-138.12,85.17s-.1,.01-.12-.03c-.03-.04-.01-.1,.02-.12Z"/>
        </g>
        <g class="ca">
          <path class="i" d="M875.57,1041.8c.33-.23,.79-.21,1.09,.08l100.06,95.11c.35,.33,.36,.87,.03,1.22-.33,.35-.87,.36-1.22,.03l-100.06-95.11c-.35-.33-.36-.87-.03-1.22,.04-.04,.08-.08,.13-.11Z"/>
        </g>
        <g class="f">
          <path class="i" d="M561.74,807.01c.38-.27,.92-.25,1.28,.08l11.33,10.34c.42,.38,.45,1.03,.07,1.45-.38,.42-1.03,.45-1.45,.07l-11.33-10.34c-.42-.38-.45-1.03-.07-1.45,.05-.06,.11-.11,.17-.15Z"/>
        </g>
        <g class="bu">
          <path class="i" d="M561.65,806.88c.27-.19,.62-.26,.96-.18,.63,.16,1.02,.8,.87,1.43l-12.04,49.11c-.16,.63-.8,1.02-1.43,.87-.63-.16-1.02-.8-.87-1.43l12.04-49.11c.07-.29,.24-.53,.47-.69Z"/>
        </g>
        <g class="bo">
          <path class="i" d="M549.85,856.33c.15-.1,.33-.16,.52-.14,.42,.04,.73,.42,.69,.85l-11.46,112.84c-.04,.43-.43,.73-.85,.69-.42-.04-.73-.42-.69-.85l11.46-112.84c.02-.23,.15-.43,.32-.55Z"/>
        </g>
        <g class="bd">
          <path class="i" d="M382.67,967.21s.04-.02,.07-.02l156.09,2.49c.06,0,.11,.05,.11,.12,0,.06-.05,.11-.12,.11l-156.09-2.49c-.06,0-.11-.05-.11-.12,0-.04,.02-.07,.05-.09Z"/>
        </g>
        <g class="bd">
          <path class="i" d="M538.75,969.69s.05-.03,.08-.03c.07,0,.13,.07,.13,.14l-7.51,173.56c0,.07-.06,.14-.14,.13-.07,0-.13-.07-.13-.14l7.51-173.56s.02-.08,.06-.11Z"/>
        </g>
        <g class="g">
          <path class="i" d="M1821.66,757.18c.39,.25,.91,.13,1.16-.26l22.12-34.63v-3.12l-23.53,36.84c-.25,.39-.14,.91,.26,1.16Z"/>
        </g>
        <g class="bx">
          <path class="i" d="M1674.81,642.31s.06-.02,.08,0l147.27,114.11s.03,.07,.01,.1c-.02,.03-.07,.03-.1,.01l-147.27-114.11s-.03-.07-.01-.1c0,0,0-.01,.01-.01Z"/>
        </g>
        <g class="bv">
          <path class="i" d="M1821.88,756.14c.18-.13,.43-.09,.57,.09,.13,.18,.09,.44-.09,.57l-139.61,101.78s0,0,0,0c-.18,.13-.43,.09-.57-.09-.13-.18-.09-.44,.09-.57l139.61-101.78s0,0,0,0Z"/>
        </g>
        <g class="bh">
          <path class="i" d="M1820.84,754.65c.87-.61,2.08-.53,2.85,.25,.87,.87,.87,2.28,0,3.15l-92.19,91.99c-.86,.86-2.28,.87-3.15,0-.87-.87-.87-2.28,0-3.15l92.19-91.99c.09-.09,.19-.17,.3-.25Z"/>
        </g>
        <g class="at">
          <path class="i" d="M1681.35,856.6c.22-.15,.47-.27,.75-.32l47.42-9.79c1.09-.23,2.16,.48,2.39,1.57,.23,1.1-.47,2.17-1.57,2.39l-47.42,9.79c-1.09,.23-2.16-.48-2.39-1.57-.17-.82,.18-1.62,.82-2.07Z"/>
        </g>
        <g class="bq">
          <path class="i" d="M1667.56,785.36c.08-.05,.16-.09,.26-.11,.37-.08,.73,.16,.8,.53l14.55,72.33c.08,.37-.17,.73-.53,.8-.37,.08-.73-.16-.8-.53l-14.55-72.33c-.06-.27,.06-.54,.28-.69Z"/>
        </g>
        <g class="cd">
          <path class="i" d="M1498.72,873.19s.04-.02,.06-.03l168.96-87.66c.23-.12,.52-.03,.64,.2,.12,.23,.03,.54-.2,.64l-168.96,87.66c-.23,.12-.52,.03-.64-.2-.11-.21-.04-.48,.15-.61Z"/>
        </g>
        <g class="az">
          <path class="i" d="M1557.69,3.16c.1-.07,.22-.13,.35-.18,.71-.24,1.49,.14,1.73,.86l34.12,101.02c.24,.71-.15,1.48-.86,1.73-.71,.24-1.49-.14-1.73-.86l-34.12-101.02c-.2-.59,.03-1.21,.51-1.55Z"/>
        </g>
        <g class="bb">
          <path class="i" d="M1592.45,105.08c.06-.04,.14-.06,.22-.03,.13,.04,.21,.18,.16,.31l-72.46,231.34c-.04,.13-.18,.21-.31,.16-.13-.04-.21-.18-.16-.31l72.46-231.34c.02-.05,.05-.1,.09-.13Z"/>
        </g>
        <g class="bk">
          <path class="i" d="M1390.71,255.69c.12-.08,.27-.09,.4-.01l129.22,80.64c.17,.11,.22,.33,.12,.5-.11,.17-.33,.22-.5,.12l-129.22-80.64c-.17-.11-.22-.33-.12-.5,.03-.04,.06-.08,.1-.1Z"/>
        </g>
        <g class="ay">
          <path class="i" d="M1519.52,335.76c.27-.19,.64-.25,.98-.13,.56,.2,.84,.81,.64,1.37l-56.62,158.06c-.19,.55-.81,.85-1.37,.64-.56-.2-.84-.81-.65-1.37l56.62-158.06c.08-.22,.22-.39,.39-.51Z"/>
        </g>
        <g class="bs">
          <path class="i" d="M1462.63,493.44c.38-.26,.87-.36,1.34-.21,.8,.26,1.25,1.11,.99,1.91l-26.94,84.9c-.26,.8-1.11,1.24-1.91,.99-.8-.26-1.25-1.11-.99-1.91l26.94-84.9c.11-.33,.31-.6,.58-.78Z"/>
        </g>
        <g class="aw">
          <path class="i" d="M1435.89,578.62c.4-.28,.95-.29,1.37,0,.53,.38,.65,1.12,.27,1.65l-1.14,1.59c-.39,.53-1.12,.65-1.65,.27-.53-.38-.65-1.12-.27-1.65l1.14-1.59c.08-.11,.18-.2,.28-.28Z"/>
        </g>
        <g class="ca">
          <path class="i" d="M1183.13,3.97c.29-.2,.68-.17,.94,.09,.28,.29,.28,.75-.01,1.03l-119.2,116.92c-.28,.26-.75,.28-1.03-.01-.28-.29-.28-.75,.01-1.03L1183.04,4.04s.06-.05,.09-.08Z"/>
        </g>
        <g class="bb">
          <path class="i" d="M1064.17,121.22c.12-.09,.29-.08,.4,.03l127.13,122.83c.13,.12,.13,.32,0,.45-.14,.13-.33,.13-.45,0l-127.13-122.83c-.13-.12-.13-.32,0-.45,.02-.01,.03-.03,.05-.04Z"/>
        </g>
        <g class="bj">
          <path class="i" d="M1191.33,244.11s.09-.05,.15-.05c.14,0,.25,.12,.25,.25l-3.03,198.21c0,.14-.12,.25-.25,.25-.14,0-.25-.12-.25-.25l3.03-198.21c0-.08,.04-.16,.11-.2Z"/>
        </g>
        <g class="f">
          <path class="i" d="M1188.05,441.96c.1-.07,.22-.12,.35-.12,.38-.02,.7,.27,.72,.64l8.99,150.59c.02,.38-.27,.7-.64,.72-.38,.02-.7-.27-.72-.64l-8.99-150.59c-.01-.24,.1-.47,.29-.6Z"/>
        </g>
        <g class="cc">
          <path class="i" d="M1196.9,592.35c.07-.05,.14-.09,.23-.12,.49-.17,1.02,.09,1.19,.57l30.83,87.77c.17,.49-.09,1.02-.57,1.19-.49,.17-1.02-.09-1.19-.57l-30.83-87.77c-.14-.4,0-.84,.34-1.07Z"/>
        </g>
        <g class="f">
          <path class="i" d="M850.86,49.92c.36-.25,.86-.19,1.14,.16l56.98,71.46c.29,.36,.23,.89-.13,1.18-.36,.29-.89,.23-1.18-.13l-56.98-71.46c-.29-.36-.23-.89,.13-1.18,.01,0,.03-.02,.04-.03Z"/>
        </g>
        <g class="bj">
          <path class="i" d="M908.14,121.8s.06-.04,.1-.05c.17-.05,.34,.05,.39,.22l32.41,119.11c.04,.17-.05,.34-.22,.39-.17,.05-.34-.05-.39-.22l-32.41-119.11c-.04-.13,.02-.27,.12-.34Z"/>
        </g>
        <g class="ca">
          <path class="i" d="M837.7,205.71c.21-.15,.49-.2,.75-.11l102.56,34.77c.44,.15,.67,.63,.53,1.07-.15,.44-.62,.68-1.07,.53l-102.56-34.77c-.44-.15-.67-.63-.53-1.07,.06-.18,.17-.32,.31-.42Z"/>
        </g>
        <g class="av">
          <path class="i" d="M940.61,240.99s.07-.03,.11-.04c.12-.01,.24,.08,.25,.2l18.87,167.85c.02,.12-.07,.23-.2,.25-.12,.01-.24-.08-.25-.2l-18.87-167.85c0-.09,.03-.16,.1-.21Z"/>
        </g>
        <g class="bd">
          <path class="i" d="M959.53,408.92s.05-.02,.07-.02c.08,0,.14,.06,.14,.13l7.04,185.94c0,.08-.06,.14-.13,.14-.08,0-.14-.06-.14-.13l-7.04-185.94s.02-.09,.06-.12Z"/>
        </g>
        <g class="bd">
          <path class="i" d="M966.56,594.86s.04-.02,.07-.03c.07,0,.14,.05,.14,.13l11.63,187.4c0,.07-.05,.14-.13,.14-.07,0-.14-.05-.14-.13l-11.63-187.4s.02-.09,.06-.12Z"/>
        </g>
        <g class="av">
          <path class="i" d="M978.14,782.18s.05-.03,.09-.04c.12-.03,.24,.05,.27,.18l35.91,174.97c.03,.12-.06,.24-.18,.27-.12,.03-.24-.05-.27-.18l-35.91-174.97c-.02-.09,.02-.18,.09-.23Z"/>
        </g>
        <g class="ca">
          <path class="i" d="M1013.69,956.63s0,0,.01,0c.39-.27,.93-.16,1.2,.23l30.77,45.24c.27,.39,.17,.92-.22,1.19,0,0,0,0-.01,0-.39,.27-.93,.16-1.2-.23l-30.77-45.24c-.27-.39-.17-.92,.22-1.19Z"/>
        </g>
        <g class="bk">
          <path class="i" d="M802.43,518.96c.12-.08,.26-.12,.41-.1l27,3.45c.33,.04,.55,.34,.51,.66-.04,.32-.34,.55-.66,.51l-27-3.45c-.33-.04-.55-.34-.51-.66,.02-.17,.12-.32,.25-.41Z"/>
        </g>
        <g class="f">
          <path class="i" d="M802.28,518.76c.21-.15,.48-.2,.74-.11,.44,.14,.69,.62,.54,1.06l-25.2,77.93c-.14,.44-.61,.68-1.06,.54-.44-.14-.69-.62-.54-1.06l25.2-77.93c.06-.18,.17-.33,.32-.43Z"/>
        </g>
        <g class="bv">
          <path class="i" d="M777.21,596.87c.14-.1,.32-.14,.49-.09,.33,.08,.53,.41,.46,.74l-31.97,135.22c-.08,.33-.41,.53-.74,.46-.33-.08-.53-.41-.46-.74l31.97-135.22c.04-.15,.13-.28,.24-.36Z"/>
        </g>
        <g class="av">
          <path class="i" d="M745.46,732.41s.11-.05,.18-.04c.12,.02,.2,.14,.18,.27l-36.17,176.74c-.03,.12-.15,.2-.27,.18-.12-.02-.2-.14-.18-.27l36.17-176.74c.01-.06,.05-.11,.09-.14Z"/>
        </g>
        <g class="bj">
          <path class="i" d="M709.26,909.11s.07-.04,.11-.05c.15-.03,.29,.07,.32,.22l20.95,122.62c.03,.15-.09,.29-.22,.32-.15,.03-.29-.07-.32-.22l-20.95-122.62c-.02-.11,.03-.21,.11-.27Z"/>
        </g>
        <g class="bz">
          <path class="i" d="M729.99,1031.42c.2-.14,.47-.16,.7-.03,.32,.18,.43,.58,.25,.9l-51.45,91.29c-.18,.32-.58,.43-.9,.25-.32-.18-.43-.58-.25-.9l51.45-91.29c.05-.09,.12-.16,.19-.22Z"/>
        </g>
        <g class="bd">
          <path class="i" d="M643.32,608.88s0,0,0,0c.07-.05,.17-.03,.22,.05l53.52,81.68c.05,.07,.03,.17-.04,.22-.08,.07-.17,.03-.22-.04l-53.52-81.68c-.05-.07-.03-.17,.04-.22Z"/>
        </g>
        <g class="ca">
          <path class="i" d="M586.32,607.23c.17-.12,.37-.18,.59-.18l56.52,.95c.55,.01,.99,.46,.98,1.02-.01,.55-.47,.99-1.02,.98l-56.52-.95c-.55-.01-.99-.46-.98-1.02,0-.33,.17-.62,.43-.8Z"/>
        </g>
        <g class="br">
          <path class="i" d="M586.17,607.03c.47-.33,1.13-.3,1.57,.11,.51,.47,.54,1.26,.07,1.77l-62.11,66.99c-.47,.51-1.26,.54-1.77,.07-.51-.47-.54-1.26-.07-1.77l62.11-66.99c.06-.07,.13-.12,.2-.17Z"/>
        </g>
        <g class="ca">
          <path class="i" d="M524.28,674.34c.26-.18,.62-.21,.92-.05,.42,.23,.57,.76,.34,1.17l-67.72,121.82c-.23,.41-.76,.57-1.17,.34-.42-.23-.57-.76-.34-1.17l67.72-121.82c.07-.12,.15-.21,.26-.29Z"/>
        </g>
        <g class="bj">
          <path class="i" d="M456.89,796.63c.05-.04,.11-.06,.18-.05,.16,0,.29,.14,.29,.3l-2.14,67.74c0,.16-.14,.29-.3,.29-.16,0-.29-.14-.29-.3l2.14-67.74c0-.1,.05-.18,.12-.23Z"/>
        </g>
        <g class="bt">
          <path class="i" d="M456.94,796.7c.06-.04,.13-.05,.2-.02,.1,.05,.15,.17,.11,.27l-74.32,170.44c-.05,.1-.16,.15-.27,.11-.1-.05-.15-.17-.11-.27l74.32-170.44s.04-.06,.07-.09Z"/>
        </g>
        <g class="bg">
          <path class="i" d="M1558.87,1152.58h3.64l-30.11-28.5c-.44-.42-1.1-.45-1.58-.12-.07,.05-.13,.1-.19,.17-.48,.5-.45,1.29,.05,1.77l28.2,26.68Z"/>
        </g>
        <g class="bd">
          <path class="i" d="M1506.83,1020.27s.02-.01,.03-.01c.05-.01,.1,.02,.11,.07l24.65,104.65s-.03,.1-.07,.11c-.05,.01-.1-.02-.11-.07l-24.65-104.65s0-.08,.04-.1Z"/>
        </g>
        <g class="cd">
          <path class="i" d="M1674.46,642.6c.13,.22,.41,.29,.62,.16l169.86-100.02v-1.06l-170.32,100.29s-.02,.01-.03,.02c-.19,.14-.25,.4-.13,.6Z"/>
        </g>
        <g class="bw">
          <path class="i" d="M1478.55,733.51c.06-.04,.12-.08,.18-.11l195.6-92.12c.6-.28,1.32-.03,1.6,.58,.28,.6,.04,1.32-.58,1.6l-195.6,92.12c-.6,.28-1.32,.03-1.6-.58-.25-.54-.07-1.17,.4-1.5Z"/>
        </g>
        <g class="au">
          <path class="i" d="M1673.76,640.82c.14-.1,.31-.19,.48-.24l99.74-33.73c.99-.33,2.06,.2,2.39,1.18,.33,.99-.2,2.07-1.18,2.39l-99.74,33.73c-.99,.33-2.06-.2-2.39-1.18-.27-.81,.03-1.68,.7-2.15Z"/>
        </g>
        <g class="bo">
          <path class="i" d="M1448.07,652.29s.07-.04,.11-.06c.26-.1,.55,.03,.64,.29l30.89,81.79c.1,.26-.04,.54-.29,.64-.26,.1-.55-.03-.64-.29l-30.89-81.79c-.08-.22,0-.46,.18-.59Z"/>
        </g>
        <g class="bc">
          <path class="i" d="M1350.93,805.73s.08-.05,.12-.08l127.46-72.45c.71-.4,1.61-.15,2.01,.56,.4,.71,.13,1.63-.55,2.01l-127.46,72.45c-.71,.4-1.61,.15-2.01-.56-.38-.67-.18-1.51,.43-1.94Z"/>
        </g>
        <g class="ba">
          <path class="i" d="M1351.08,805.94c.48-.34,1.14-.29,1.57,.13,.48,.48,.49,1.25,0,1.74l-55.35,55.92c-.49,.48-1.26,.49-1.74,0-.48-.48-.49-1.25,0-1.74l55.35-55.92c.05-.05,.11-.1,.17-.14Z"/>
        </g>
        <g class="bq">
          <path class="i" d="M1296.02,862.29c.14-.1,.31-.15,.49-.12,.39,.05,.66,.4,.61,.78l-3.24,26.7c-.05,.39-.4,.66-.78,.62-.39-.05-.66-.4-.61-.78l3.24-26.7c.03-.21,.14-.38,.3-.49Z"/>
        </g>
        <g class="ax">
          <path class="i" d="M1557.37,2.71c.5-.35,1.15-.46,1.76-.23,.99,.37,1.49,1.47,1.12,2.45l-23.88,64.25c-.37,.99-1.47,1.49-2.45,1.12s-1.49-1.47-1.12-2.45l23.88-64.25c.14-.38,.38-.68,.69-.9Z"/>
        </g>
        <g class="ay">
          <path class="i" d="M1270.99,259.12c.16-.11,.35-.18,.56-.19l119.33-3.99c.58-.02,1.06,.43,1.08,1.01,.02,.58-.44,1.06-1.01,1.08l-119.33,3.99c-.58,.02-1.06-.43-1.08-1.01-.01-.37,.16-.7,.44-.89Z"/>
        </g>
        <g class="bj">
          <path class="i" d="M1534.47,68.33c.08-.06,.19-.06,.27,0,.1,.08,.12,.22,.04,.32l-143.68,187.47c-.07,.11-.22,.12-.32,.04-.1-.08-.12-.22-.04-.32l143.68-187.47s.03-.04,.05-.05Z"/>
        </g>
        <g class="bd">
          <path class="i" d="M1390.88,255.93s.05-.02,.08,0c.03,.02,.04,.06,.02,.09l-148.82,208.76s-.06,.04-.09,.02c-.03-.02-.04-.06-.02-.09l148.82-208.76s0-.01,.02-.02Z"/>
        </g>
        <g class="bb">
          <path class="i" d="M1241.95,464.54c.08-.06,.19-.06,.27,0,.12,.07,.16,.23,.08,.34l-113.74,185.63c-.07,.12-.23,.15-.34,.08-.12-.07-.16-.23-.08-.34l113.74-185.63s.04-.06,.07-.07Z"/>
        </g>
        <g class="bm">
          <path class="i" d="M1128.17,650.11c.08-.06,.19-.08,.29-.04,.17,.06,.25,.25,.19,.41l-66.22,177.16c-.06,.16-.24,.25-.41,.19-.17-.06-.25-.25-.19-.41l66.22-177.16c.02-.06,.06-.11,.12-.15Z"/>
        </g>
        <g class="bj">
          <path class="i" d="M1061.98,827.3c.05-.04,.12-.05,.18-.05,.15,.02,.26,.15,.24,.3l-17.19,175.05c-.02,.15-.15,.26-.3,.24-.15-.02-.26-.15-.24-.3l17.19-175.05c0-.08,.05-.15,.11-.2Z"/>
        </g>
        <g class="be">
          <path class="i" d="M993.42,18.19s0,0,0,0c.48-.33,1.13-.21,1.45,.27l70.33,102.44c.32,.47,.21,1.12-.26,1.45,0,0,0,0,0,0-.48,.33-1.13,.21-1.45-.27l-70.33-102.44c-.32-.47-.21-1.12,.26-1.45Z"/>
        </g>
        <g class="g">
          <path class="i" d="M729.81,1031.16c.28-.19,.64-.24,.97-.09,.49,.22,.71,.8,.48,1.29l-43.66,95.47c-.23,.5-.81,.7-1.29,.48-.49-.22-.71-.81-.48-1.29l43.66-95.47c.07-.16,.19-.3,.33-.39Z"/>
        </g>
        <g class="bt">
          <path class="i" d="M851.25,50.48s.07-.03,.1-.03c.09,0,.15,.08,.15,.17l-13.16,155.8c0,.09-.09,.15-.17,.15-.09,0-.15-.08-.15-.17l13.16-155.8s.03-.09,.07-.12Z"/>
        </g>
        <g class="bj">
          <path class="i" d="M838.04,206.2c.06-.04,.14-.06,.22-.03,.13,.04,.21,.18,.17,.31l-51.67,167.63c-.04,.13-.18,.2-.31,.17-.13-.04-.21-.18-.17-.31l51.67-167.63c.02-.05,.05-.1,.1-.13Z"/>
        </g>
        <g class="bj">
          <path class="i" d="M786.34,373.79c.09-.06,.21-.07,.31-.02,.14,.08,.2,.26,.12,.4l-90.28,166.39c-.08,.13-.26,.2-.4,.12-.14-.08-.2-.26-.12-.4l90.28-166.39s.05-.08,.09-.1Z"/>
        </g>
        <g class="av">
          <path class="i" d="M696.1,540.23c.08-.05,.18-.06,.26,0,.1,.07,.13,.22,.05,.32l-116.29,161.58c-.07,.1-.21,.12-.32,.05-.1-.07-.13-.22-.05-.32l116.29-161.58s.03-.04,.05-.05Z"/>
        </g>
        <g class="bx">
          <path class="i" d="M579.9,701.94s.06-.02,.08,0c.03,.02,.03,.07,.01,.1l-125.03,162.61s-.07,.04-.1,.01c-.03-.02-.03-.07-.01-.1l125.03-162.61s0,0,.01-.01Z"/>
        </g>
        <g class="bq">
          <path class="i" d="M442.09,862.94c.16-.11,.35-.17,.55-.15l12.34,.98c.46,.04,.81,.44,.77,.91-.04,.46-.45,.81-.91,.77l-12.34-.98c-.46-.04-.81-.44-.77-.91,.02-.26,.16-.48,.36-.62Z"/>
        </g>
        <g class="bd">
          <path class="i" d="M701.83,338.35s.06-.03,.1-.02l64.4,20.03c.06,.02,.09,.08,.07,.14-.02,.06-.08,.09-.14,.07l-64.4-20.03c-.06-.02-.09-.08-.07-.14,0-.02,.02-.04,.04-.06Z"/>
        </g>
        <g class="bv">
          <path class="i" d="M623.15,362.81s.11-.06,.17-.08l78.4-24.87c.32-.1,.67,.08,.77,.4,.1,.32-.08,.66-.4,.77l-78.4,24.87c-.32,.1-.67-.08-.77-.4-.08-.26,.02-.54,.23-.69Z"/>
        </g>
        <g class="cc">
          <path class="i" d="M519.99,414.41s.09-.06,.13-.08l102.91-51.95c.52-.26,1.14-.05,1.4,.46,.26,.52,.05,1.16-.46,1.4l-102.91,51.95c-.52,.26-1.14,.05-1.4-.46-.24-.47-.09-1.03,.33-1.33Z"/>
        </g>
        <g class="be">
          <path class="i" d="M397.26,479.02s.08-.06,.13-.08l122.63-64.74c.59-.31,1.32-.08,1.63,.5,.31,.59,.1,1.3-.5,1.63l-122.63,64.74c-.59,.31-1.32,.08-1.63-.5-.29-.54-.12-1.2,.37-1.55Z"/>
        </g>
        <g class="bm">
          <path class="i" d="M303.23,539.99s0,0,.01,0l94.5-60.3c.18-.12,.42-.06,.53,.12s.04,.42-.12,.53l-94.5,60.3c-.18,.12-.42,.06-.53-.12-.11-.18-.07-.41,.1-.52Z"/>
        </g>
        <g class="cc">
          <path class="i" d="M279.01,553.62s.03-.02,.04-.03l118.42-74.37c.44-.27,1.01-.14,1.29,.29,.27,.44,.13,.93-.29,1.29l-118.42,74.37c-.44,.27-1.01,.14-1.29-.29-.26-.42-.15-.98,.25-1.26Z"/>
        </g>
        <g class="bu">
          <path class="i" d="M1468.63,1152.58h4.41l-34.1-16.86c-.33-.16-.71-.12-1,.08-.13,.09-.24,.21-.31,.37-.24,.48-.04,1.07,.44,1.31l30.56,15.1Z"/>
        </g>
        <g class="ay">
          <path class="i" d="M1233.48,1061.58c.33-.23,.76-.3,1.17-.16l204.28,73.98c.66,.24,1,.97,.76,1.63-.24,.66-.97,1-1.63,.76l-204.28-73.98c-.66-.24-1-.97-.76-1.63,.09-.26,.26-.46,.46-.61Z"/>
        </g>
        <g class="ce">
          <path class="i" d="M1115.12,1059.7c.22-.15,.49-.24,.78-.24l118.34,1.84c.73,.01,1.31,.61,1.3,1.34-.01,.73-.61,1.31-1.34,1.3l-118.34-1.84c-.73-.01-1.31-.61-1.3-1.34,0-.44,.23-.82,.56-1.06Z"/>
        </g>
        <g class="ce">
          <path class="i" d="M1115.19,1059.8c.48-.33,1.14-.28,1.56,.15,.46,.48,.45,1.24-.03,1.7l-59.15,57.37c-.49,.46-1.24,.45-1.7-.03-.46-.48-.45-1.24,.03-1.7l59.15-57.37s.1-.09,.15-.12Z"/>
        </g>
        <g class="bn">
          <path class="i" d="M1050.72,1152.58l6.94-34.24c.11-.52-.23-1.02-.75-1.12-.27-.05-.53,0-.74,.15-.19,.14-.34,.34-.39,.59l-7.02,34.61h1.95Z"/>
        </g>
        <g class="bl">
          <path class="i" d="M1773.49,607.07c.16-.11,.35-.21,.55-.27,1.01-.3,2.07,.27,2.38,1.28l13.2,43.98c.3,1.01-.27,2.08-1.28,2.38-1.01,.3-2.07-.27-2.38-1.28l-13.2-43.98c-.24-.81,.08-1.65,.73-2.11Z"/>
        </g>
        <g class="bj">
          <path class="i" d="M1169.79,717.37s.05-.03,.08-.04l278.43-64.85c.12-.03,.24,.05,.27,.17,.03,.12-.04,.25-.17,.27l-278.43,64.85c-.12,.03-.24-.05-.27-.17-.02-.09,.02-.19,.09-.24Z"/>
        </g>
        <g class="bw">
          <path class="i" d="M1387.14,591.6c.52-.37,1.25-.32,1.71,.15l60.44,60.01c.52,.52,.53,1.37,0,1.9-.53,.52-1.37,.53-1.9,0l-60.44-60.01c-.52-.52-.53-1.37,0-1.9,.06-.06,.12-.11,.18-.15Z"/>
        </g>
        <g class="bk">
          <path class="i" d="M961.88,816.73s.03-.02,.05-.03l207.84-99.47c.18-.09,.4,0,.48,.17,.09,.18,.02,.39-.17,.48l-207.84,99.47c-.18,.09-.4,0-.48-.17-.08-.16-.02-.35,.12-.45Z"/>
        </g>
        <g class="bk">
          <path class="i" d="M961.88,816.73c.15-.1,.35-.08,.48,.05,.14,.15,.12,.38-.02,.51l-151.1,136.98c-.16,.16-.38,.12-.51-.03-.14-.15-.12-.38,.02-.51l151.09-136.98s.02-.02,.04-.03Z"/>
        </g>
        <g class="av">
          <path class="i" d="M810.87,953.84c.07-.05,.16-.05,.24,0,.09,.07,.11,.19,.05,.29l-124.28,173.42c-.06,.09-.19,.11-.29,.05-.09-.07-.11-.19-.05-.29l124.28-173.42s.03-.03,.05-.05Z"/>
        </g>
        <g class="bv">
          <path class="i" d="M680.9,1152.58l6.25-25.04c.06-.24-.09-.49-.33-.55-.13-.03-.27,0-.37,.07-.09,.06-.15,.15-.18,.26l-6.31,25.26h.94Z"/>
        </g>
        <g class="bj">
          <path class="i" d="M1330.33,115.25s.06-.03,.1-.04l204.11-46.96c.15-.03,.29,.06,.33,.2,.03,.15-.06,.3-.2,.33l-204.11,46.96c-.15,.03-.29-.06-.33-.2-.03-.11,.02-.22,.11-.28Z"/>
        </g>
        <g class="ax">
          <path class="i" d="M1533.42,66.84c.16-.11,.34-.2,.53-.27l141.88-47.24c1.07-.36,2.23,.22,2.59,1.29,.36,1.07-.22,2.23-1.3,2.59l-141.88,47.24c-1.07,.36-2.23-.22-2.59-1.29-.29-.88,.04-1.81,.76-2.32Z"/>
        </g>
        <g class="ay">
          <path class="i" d="M1329.83,114.55c.31-.22,.71-.28,1.08-.12,.58,.24,.86,.9,.62,1.48l-58.9,144.5c-.24,.59-.9,.86-1.48,.62-.58-.24-.86-.9-.62-1.48l58.9-144.5c.09-.21,.23-.38,.4-.5Z"/>
        </g>
        <g class="br">
          <path class="i" d="M292.48,959.92s.02-.01,.03-.02l149.55-97.05c.43-.28,1.01-.16,1.29,.27s.18,1.01-.27,1.29l-149.55,97.05c-.43,.28-1.01,.16-1.29-.27-.27-.42-.16-.98,.25-1.27Z"/>
        </g>
        <g class="bo">
          <path class="i" d="M974.81,0h-1.45l20.32,19.4c.2,.19,.5,.2,.71-.02,.19-.2,.18-.52-.02-.71L974.81,0Z"/>
        </g>
        <g class="bj">
          <path class="i" d="M993.9,18.87c.07-.05,.16-.05,.23,0,.09,.06,.12,.19,.06,.28l-138.66,205.9c-.07,.09-.19,.12-.28,.06-.09-.06-.12-.19-.06-.28L993.85,18.93s.03-.04,.05-.05Z"/>
        </g>
        <g class="bk">
          <path class="i" d="M855.16,224.67c.14-.1,.33-.08,.45,.05,.12,.14,.11,.35-.03,.48l-170.66,152.43c-.15,.13-.36,.11-.48-.03-.12-.14-.11-.35,.03-.48l170.66-152.43s.02-.02,.03-.02Z"/>
        </g>
        <g class="bm">
          <path class="i" d="M490.85,479.48s.02-.02,.04-.02l193.66-102.39c.17-.09,.37-.02,.46,.14,.09,.17,.02,.37-.14,.46l-193.66,102.39c-.17,.09-.37,.02-.46-.14-.08-.15-.03-.34,.11-.44Z"/>
        </g>
        <g class="av">
          <path class="i" d="M303.35,540.16s.03-.02,.05-.02l187.59-60.54c.09-.03,.2,.02,.23,.12,.03,.1-.01,.2-.12,.23l-187.59,60.54c-.09,.03-.2-.02-.23-.12-.03-.08,0-.16,.07-.2Z"/>
        </g>
        <g class="be">
          <path class="i" d="M219.03,580.89s.09-.06,.14-.08l83.83-41.42c.51-.25,1.12-.04,1.37,.46,.25,.51,.02,1.12-.46,1.37l-83.83,41.42c-.51,.25-1.12,.04-1.37-.46-.23-.46-.08-1.01,.33-1.29Z"/>
        </g>
        <g class="cc">
          <path class="i" d="M764.83,1.88c.3-.21,.72-.22,1.03,.01,.4,.29,.48,.84,.19,1.24l-79.51,108.56c-.29,.39-.85,.48-1.24,.19-.4-.29-.48-.84-.19-1.24L764.63,2.08c.06-.08,.13-.15,.21-.2Z"/>
        </g>
        <g class="be">
          <path class="i" d="M558.55,177.54s.08-.05,.12-.07l126.66-67.27c.53-.28,1.19-.08,1.47,.45,.28,.53,.09,1.19-.45,1.47l-126.66,67.27c-.53,.28-1.19,.08-1.47-.45-.26-.49-.11-1.09,.33-1.4Z"/>
        </g>
        <g class="aw">
          <path class="i" d="M386.74,199.89c.15-.1,.32-.18,.52-.2l171.77-22.41c.63-.08,1.22,.36,1.3,1,.08,.63-.36,1.21-1,1.3l-171.77,22.41c-.63,.08-1.22-.36-1.3-1-.06-.44,.14-.86,.48-1.1Z"/>
        </g>
        <g class="bn">
          <path class="i" d="M184.23,177.81c.2-.14,.44-.21,.7-.18l202.58,22.2c.56,.06,.97,.57,.9,1.13-.06,.56-.56,.97-1.13,.9l-202.58-22.2c-.56-.06-.97-.57-.9-1.13,.03-.3,.2-.56,.43-.72Z"/>
        </g>
        <g class="bj">
          <path class="i" d="M1330.57,1152.58h1.1l-176.99-125.91c-.11-.08-.26-.08-.37,0-.03,.02-.05,.04-.08,.08-.1,.14-.07,.34,.08,.44l176.27,125.39Z"/>
        </g>
        <g class="bw">
          <path class="i" d="M1131.26,955.79c.13-.09,.28-.17,.45-.22,.87-.28,1.81,.2,2.08,1.08l22.27,69.78c.28,.87-.2,1.81-1.08,2.08-.87,.28-1.81-.2-2.08-1.08l-22.27-69.78c-.23-.71,.05-1.46,.63-1.86Z"/>
        </g>
        <g class="bm">
          <path class="i" d="M887.3,918.11c.12-.08,.27-.1,.41-.05l266.94,108.46c.22,.09,.33,.34,.24,.56-.09,.22-.34,.33-.56,.24l-266.94-108.46c-.22-.09-.33-.34-.24-.56,.03-.08,.09-.14,.15-.19Z"/>
        </g>
        <g class="bk">
          <path class="i" d="M666.34,894.25c.08-.06,.19-.09,.3-.08l220.96,23.87c.24,.03,.41,.24,.38,.48-.03,.24-.24,.41-.48,.38l-220.96-23.87c-.24-.03-.41-.24-.38-.48,.01-.13,.08-.24,.18-.31Z"/>
        </g>
        <g class="bb">
          <path class="i" d="M473.02,919.88s.08-.04,.13-.05l193.4-25.52c.16-.02,.31,.09,.33,.26,.02,.16-.09,.31-.26,.33l-193.4,25.52c-.16,.02-.31-.09-.33-.26-.01-.11,.04-.22,.12-.28Z"/>
        </g>
        <g class="bd">
          <path class="i" d="M292.98,960.62s.02,0,.02-.01l180.17-40.55s.07,.02,.08,.05c0,.04-.01,.07-.05,.08l-180.17,40.55s-.07-.02-.08-.05c0-.03,0-.06,.03-.07Z"/>
        </g>
        <g class="bk">
          <path class="i" d="M292.8,960.36c.13-.09,.3-.1,.44,0,.18,.12,.22,.36,.1,.54l-131.24,190.89c-.13,.18-.36,.22-.54,.1-.18-.12-.22-.36-.1-.54l131.24-190.89s.06-.07,.1-.1Z"/>
        </g>
        <g class="bq">
          <path class="i" d="M1664.11,512.93c.38-.27,.91-.21,1.23,.14l123.14,138.91c.34,.39,.31,.97-.08,1.32-.38,.33-.97,.31-1.32-.08l-123.14-138.91c-.34-.38-.31-.97,.08-1.32,.03-.02,.05-.04,.08-.07Z"/>
        </g>
        <g class="cb">
          <path class="i" d="M1787.29,654.81l57.65,12.99v-4.61l-56.66-12.77c-.64-.15-1.29,0-1.79,.35-.44,.31-.77,.78-.9,1.35-.27,1.21,.49,2.42,1.7,2.69Z"/>
        </g>
        <g class="bk">
          <path class="i" d="M1284.48,378.64s.04-.03,.07-.04c.24-.11,.52-.02,.64,.22l103.16,213.66c.11,.24,.02,.51-.22,.64-.24,.12-.52,.02-.64-.22l-103.16-213.66c-.1-.21-.03-.47,.16-.6Z"/>
        </g>
        <g class="g">
          <path class="i" d="M1387.3,591.82c.1-.07,.2-.12,.32-.15l276.73-79c.57-.16,1.16,.17,1.32,.73,.16,.57-.17,1.16-.73,1.32l-276.73,79c-.57,.16-1.16-.17-1.32-.73-.13-.45,.05-.91,.41-1.17Z"/>
        </g>
        <g class="g">
          <path class="i" d="M3.03,632.36c.08-.06,.18-.1,.28-.13l216.12-51.3c.44-.11,.88,.17,.98,.61,.11,.44-.16,.88-.61,.98L3.69,633.83c-.44,.11-.88-.17-.98-.61-.08-.34,.06-.67,.33-.86Z"/>
        </g>
        <g class="bk">
          <path class="i" d="M219.41,581.43c.11-.08,.26-.09,.39-.02,.17,.1,.24,.32,.14,.5l-88.83,156.81c-.1,.17-.32,.24-.5,.14-.17-.1-.24-.32-.14-.5l88.83-156.81s.06-.09,.11-.12Z"/>
        </g>
        <g class="az">
          <path class="i" d="M1671.17,0l3.56,21.57c.16,.97,1.07,1.62,2.04,1.46,.97-.16,1.62-1.07,1.46-2.04l-3.47-20.99h-3.59Z"/>
        </g>
        <g class="bk">
          <path class="i" d="M1771.79,0l-95.41,20.83c-.06,.01-.12,.04-.16,.07-.14,.1-.22,.28-.18,.47,.05,.24,.3,.4,.54,.35L1776.05,0h-4.26Z"/>
        </g>
        <g class="bk">
          <path class="i" d="M1315.92,0l14.09,115.54c.03,.26,.27,.45,.53,.41,.25-.03,.45-.27,.41-.53L1316.88,0h-.96Z"/>
        </g>
        <g class="bd">
          <path class="i" d="M1027.01,209.11s.02,0,.03-.01l303.43-93.71s.1,.01,.11,.06c.01,.05-.01,.1-.06,.11l-303.43,93.71s-.1-.01-.11-.06c-.01-.04,0-.08,.03-.1Z"/>
        </g>
        <g class="bb">
          <path class="i" d="M748.22,272.41s.07-.04,.11-.05l278.66-63.49c.17-.04,.34,.07,.38,.24,.04,.17-.08,.34-.24,.38l-278.66,63.49c-.17,.04-.34-.07-.38-.24-.03-.13,.02-.26,.13-.33Z"/>
        </g>
        <g class="bk">
          <path class="i" d="M476.79,283.23c.07-.05,.15-.07,.23-.08l271.36-10.91c.24,0,.44,.18,.45,.41,0,.24-.18,.44-.41,.45l-271.36,10.91c-.24,0-.44-.18-.45-.41,0-.15,.07-.29,.18-.37Z"/>
        </g>
        <g class="bm">
          <path class="i" d="M210.13,231.17c.08-.06,.19-.08,.3-.06l266.69,52.09c.21,.04,.35,.24,.31,.45-.04,.21-.24,.35-.45,.31l-266.69-52.09c-.21-.04-.35-.24-.31-.45,.02-.1,.08-.19,.16-.24Z"/>
        </g>
        <g class="bw">
          <path class="i" d="M34.58,290.67c.1-.07,.2-.12,.32-.16l175.03-60.25c.68-.23,1.42,.13,1.65,.8,.23,.68-.13,1.41-.8,1.65l-175.03,60.25c-.68,.23-1.41-.13-1.65-.8-.19-.56,.02-1.16,.48-1.48Z"/>
        </g>
        <g class="bb">
          <path class="i" d="M32.34,1082.43c.08-.06,.19-.07,.29-.02l129.29,68.91c.13,.07,.18,.24,.11,.37-.07,.13-.24,.18-.37,.11l-129.29-68.91c-.13-.07-.18-.24-.11-.37,.02-.04,.05-.07,.08-.09Z"/>
        </g>
        <g class="bf">
          <path class="i" d="M325.21,1152.58l38.65-26.76s0,0,0,0c.7-.49,.88-1.47,.39-2.17-.49-.71-1.47-.89-2.18-.4l-42.38,29.34h5.51Z"/>
        </g>
        <g class="ce">
          <path class="i" d="M368.3,960.08c.31-.22,.68-.34,1.09-.32,.98,.04,1.74,.86,1.7,1.84l-6.35,163c-.04,.98-.86,1.74-1.84,1.7-.98-.04-1.74-.86-1.7-1.84l6.35-163c.02-.57,.32-1.07,.75-1.38Z"/>
        </g>
        <g class="br">
          <path class="i" d="M266.79,838.94c.46-.32,1.1-.24,1.46,.19l101.9,121.7c.39,.46,.33,1.15-.14,1.54-.44,.4-1.15,.33-1.54-.14l-101.9-121.7c-.39-.46-.33-1.15,.14-1.54,.02-.02,.05-.04,.07-.06Z"/>
        </g>
        <g class="bm">
          <path class="i" d="M130.59,738.24c.12-.09,.3-.09,.43,0l136.62,101.29c.16,.12,.19,.35,.08,.51-.12,.16-.35,.19-.51,.08l-136.62-101.29c-.16-.12-.19-.35-.08-.51,.02-.03,.05-.06,.08-.08Z"/>
        </g>
        <g class="bv">
          <path class="i" d="M1282.79,1152.58h2.01l-151.96-195.92c-.26-.34-.74-.41-1.08-.16,0,0-.02,.01-.03,.02-.35,.27-.41,.77-.14,1.12l151.2,194.94Z"/>
        </g>
        <g class="bm">
          <path class="i" d="M834.32,735.07c.16-.12,.39-.12,.56,0l297.62,221.68c.21,.16,.25,.46,.1,.67-.15,.21-.46,.25-.67,.1l-297.62-221.68c-.21-.16-.25-.46-.1-.67,.03-.04,.07-.08,.11-.11Z"/>
        </g>
        <g class="av">
          <path class="i" d="M546.09,580c.08-.06,.19-.07,.29-.02l288.35,155.24c.13,.07,.18,.24,.11,.37-.07,.14-.24,.18-.37,.11l-288.35-155.24c-.13-.07-.18-.24-.11-.37,.02-.04,.05-.07,.08-.09Z"/>
        </g>
        <g class="av">
          <path class="i" d="M280.62,444.44c.07-.05,.17-.06,.26-.02l265.48,135.58c.12,.06,.17,.21,.11,.34-.06,.12-.21,.17-.34,.11l-265.48-135.58c-.12-.06-.17-.21-.11-.34,.02-.04,.05-.07,.08-.09Z"/>
        </g>
        <g class="bm">
          <path class="i" d="M35.1,291.42c.12-.09,.29-.1,.43-.01l245.44,152.91c.18,.11,.24,.35,.12,.53-.11,.18-.35,.24-.53,.12L35.12,292.06c-.18-.11-.24-.35-.12-.53,.03-.05,.06-.08,.11-.11Z"/>
        </g>
        <g class="bm">
          <path class="i" d="M945.24,277.49c.12-.08,.26-.11,.41-.07l339.24,101.15c.25,.08,.4,.34,.32,.59-.08,.25-.34,.4-.59,.32l-339.24-101.15c-.25-.08-.4-.34-.32-.59,.03-.11,.1-.2,.18-.25Z"/>
        </g>
        <g class="br">
          <path class="i" d="M651.38,169.95c.33-.23,.76-.3,1.17-.16l293.4,106.89c.66,.24,1,.97,.76,1.63-.24,.66-.97,1-1.63,.76l-293.4-106.89c-.66-.24-1-.97-.76-1.63,.09-.25,.26-.46,.46-.61Z"/>
        </g>
        <g class="ce">
          <path class="i" d="M391.19,23.81c.58-.4,1.35-.47,2.01-.1l259.84,145.63c.91,.51,1.23,1.66,.72,2.57-.51,.91-1.66,1.23-2.57,.72L391.35,27c-.91-.51-1.23-1.66-.72-2.57,.14-.25,.34-.46,.56-.62Z"/>
        </g>
        <path class="as" d="M1817.58,180.68c.79,1.57,.15,3.48-1.42,4.27-1.57,.79-3.48,.15-4.27-1.42-.79-1.57-.15-3.48,1.42-4.27,1.57-.79,3.48-.15,4.27,1.42Z"/>
        <path class="w" d="M1816.75,446.79c.76,1.53,.15,3.38-1.38,4.15-1.53,.77-3.38,.15-4.15-1.38-.76-1.53-.15-3.38,1.38-4.15,1.53-.77,3.38-.15,4.15,1.38Z"/>
        <path class="ak" d="M1824.32,635.01c.74,1.48,.14,3.28-1.34,4.03-1.48,.74-3.28,.14-4.03-1.34s-.14-3.28,1.34-4.03,3.28-.14,4.03,1.34Z"/>
        <path class="ae" d="M1480.92,134.28c.73,1.46,.14,3.23-1.32,3.97-1.46,.73-3.23,.14-3.97-1.32s-.14-3.23,1.32-3.97c1.46-.73,3.23-.14,3.97,1.32Z"/>
        <path class="m" d="M1525.92,271.79c.7,1.39,.14,3.08-1.26,3.78-1.39,.7-3.08,.14-3.78-1.26-.7-1.39-.14-3.08,1.26-3.78,1.39-.7,3.08-.14,3.78,1.26Z"/>
        <path class="ac" d="M1568.82,332.71c.66,1.32,.13,2.94-1.2,3.6-1.32,.66-2.94,.13-3.6-1.2-.66-1.32-.13-2.94,1.2-3.6,1.32-.66,2.94-.13,3.6,1.2Z"/>
        <path class="t" d="M943.99,71.08c.56,1.12,.11,2.49-1.01,3.05-1.12,.56-2.49,.11-3.05-1.01-.56-1.12-.11-2.49,1.01-3.05,1.12-.56,2.49-.11,3.05,1.01Z"/>
        <path class="ao" d="M1012.52,53.5c.62,1.23,.12,2.74-1.11,3.36s-2.74,.12-3.36-1.11-.12-2.74,1.11-3.36,2.74-.12,3.36,1.11Z"/>
        <path class="j" d="M1098.79,128.32c.64,1.28,.12,2.84-1.15,3.48s-2.84,.12-3.48-1.15c-.64-1.28-.12-2.84,1.15-3.48,1.28-.64,2.84-.12,3.48,1.16Z"/>
        <path class="j" d="M1178.41,228.39c.64,1.28,.12,2.84-1.16,3.48-1.28,.64-2.84,.12-3.48-1.16-.64-1.28-.12-2.84,1.15-3.48,1.28-.64,2.84-.12,3.48,1.15Z"/>
        <path class="af" d="M1248.28,300.5c.63,1.26,.12,2.79-1.13,3.42-1.26,.63-2.79,.12-3.42-1.13-.63-1.26-.12-2.79,1.13-3.42,1.26-.63,2.79-.12,3.42,1.13Z"/>
        <path class="ao" d="M1309.92,307.12c.62,1.23,.12,2.74-1.11,3.36s-2.74,.12-3.36-1.11-.12-2.74,1.11-3.36,2.74-.12,3.36,1.11Z"/>
        <path class="s" d="M919.63,641.37c.51,1.01,.1,2.24-.91,2.75-1.01,.51-2.24,.1-2.75-.91s-.1-2.24,.91-2.75c1.01-.51,2.24-.1,2.75,.91Z"/>
        <path class="x" d="M930.22,549.72c.54,1.08,.1,2.39-.97,2.93s-2.39,.1-2.93-.97-.1-2.39,.97-2.93,2.39-.1,2.93,.97Z"/>
        <path class="aq" d="M965.94,547.83c.57,1.14,.11,2.54-1.03,3.11-1.14,.57-2.54,.11-3.11-1.03-.57-1.14-.11-2.54,1.03-3.11,1.14-.57,2.54-.11,3.11,1.03Z"/>
        <path class="al" d="M1019.98,595.68c.59,1.17,.11,2.59-1.05,3.17-1.17,.59-2.59,.11-3.17-1.05-.59-1.17-.11-2.59,1.05-3.17,1.17-.59,2.59-.11,3.17,1.05Z"/>
        <path class="al" d="M1087.59,645.33c.59,1.17,.11,2.59-1.05,3.17-1.17,.59-2.59,.11-3.17-1.05-.59-1.17-.11-2.59,1.05-3.17,1.17-.59,2.59-.11,3.17,1.05Z"/>
        <path class="aq" d="M1161.75,645.88c.57,1.14,.11,2.54-1.03,3.11-1.14,.57-2.54,.11-3.11-1.03-.57-1.14-.11-2.54,1.03-3.11,1.14-.57,2.54-.11,3.11,1.03Z"/>
        <path class="o" d="M758.43,922.49c.53,1.05,.1,2.34-.95,2.87-1.05,.53-2.34,.1-2.87-.95-.53-1.05-.1-2.34,.95-2.87,1.05-.53,2.34-.1,2.87,.95Z"/>
        <path class="ag" d="M768.45,853.14c.55,1.1,.11,2.44-.99,2.99s-2.44,.11-2.99-.99-.11-2.44,.99-2.99,2.44-.11,2.99,.99Z"/>
        <path class="aq" d="M785.6,862.29c.57,1.14,.11,2.54-1.03,3.11-1.14,.57-2.54,.11-3.11-1.03s-.11-2.54,1.03-3.11c1.14-.57,2.54-.11,3.11,1.03Z"/>
        <path class="p" d="M818.55,934.6c.6,1.19,.12,2.64-1.07,3.23-1.19,.6-2.64,.12-3.23-1.07-.6-1.19-.12-2.64,1.07-3.23,1.19-.6,2.64-.12,3.23,1.07Z"/>
        <path class="ao" d="M878.3,1041.39c.62,1.23,.12,2.74-1.11,3.36s-2.74,.12-3.36-1.11-.12-2.74,1.11-3.36c1.23-.62,2.74-.12,3.36,1.11Z"/>
        <path class="ao" d="M978.36,1136.5c.62,1.23,.12,2.74-1.11,3.36-1.23,.62-2.74,.12-3.36-1.11s-.12-2.74,1.11-3.36c1.23-.62,2.74-.12,3.36,1.11Z"/>
        <path class="s" d="M575.49,817.27c.51,1.01,.1,2.24-.91,2.75-1.01,.51-2.24,.1-2.75-.91-.51-1.01-.1-2.24,.91-2.75s2.24-.1,2.75,.91Z"/>
        <path class="x" d="M564.28,806.87c.54,1.08,.1,2.39-.97,2.93-1.08,.54-2.39,.1-2.93-.97-.54-1.08-.1-2.39,.97-2.93,1.08-.54,2.39-.1,2.93,.97Z"/>
        <path class="t" d="M552.32,855.94c.56,1.12,.11,2.49-1.01,3.05-1.12,.56-2.49,.11-3.05-1.01-.56-1.12-.11-2.49,1.01-3.05,1.12-.56,2.49-.11,3.05,1.01Z"/>
        <path class="ad" d="M540.98,968.72c.6,1.19,.12,2.64-1.07,3.23-1.19,.6-2.64,.12-3.23-1.07-.6-1.19-.12-2.64,1.07-3.23,1.19-.6,2.64-.12,3.23,1.07Z"/>
        <path class="af" d="M533.59,1142.21c.63,1.26,.12,2.79-1.13,3.42-1.26,.63-2.79,.12-3.42-1.13-.63-1.26-.12-2.79,1.13-3.42s2.79-.12,3.42,1.13Z"/>
        <path class="am" d="M1825.24,754.9c.87,1.73,.17,3.83-1.56,4.7-1.73,.87-3.83,.17-4.7-1.56-.87-1.73-.17-3.83,1.56-4.7,1.73-.87,3.83-.17,4.7,1.56Z"/>
        <path class="aa" d="M1732.93,846.95c.83,1.66,.16,3.68-1.5,4.51-1.66,.83-3.68,.16-4.51-1.5s-.16-3.68,1.5-4.51c1.66-.83,3.68-.16,4.51,1.5Z"/>
        <path class="v" d="M1685.31,856.85c.78,1.55,.15,3.43-1.4,4.21-1.55,.78-3.43,.15-4.21-1.4-.78-1.55-.15-3.43,1.4-4.21,1.55-.78,3.43-.15,4.21,1.4Z"/>
        <path class="ar" d="M1670.51,784.63c.71,1.41,.14,3.13-1.28,3.84s-3.13,.14-3.84-1.28c-.71-1.41-.14-3.13,1.28-3.84,1.41-.71,3.13-.14,3.84,1.28Z"/>
        <path class="an" d="M1595.6,103.78c.83,1.66,.16,3.68-1.5,4.51s-3.68,.16-4.51-1.5-.16-3.68,1.5-4.51c1.66-.83,3.68-.16,4.51,1.5Z"/>
        <path class="r" d="M1523.02,335.18c.8,1.59,.15,3.53-1.44,4.33-1.59,.8-3.53,.15-4.33-1.44s-.15-3.53,1.44-4.33c1.59-.8,3.53-.15,4.33,1.44Z"/>
        <path class="k" d="M1466.23,493.32c.75,1.5,.15,3.33-1.36,4.09s-3.33,.15-4.09-1.36-.15-3.33,1.36-4.09c1.5-.75,3.33-.15,4.09,1.36Z"/>
        <path class="y" d="M1439.13,578.31c.71,1.41,.14,3.13-1.28,3.84-1.41,.71-3.13,.14-3.84-1.28s-.14-3.13,1.28-3.84c1.41-.71,3.13-.14,3.84,1.28Z"/>
        <path class="ap" d="M1437.83,579.98c.66,1.32,.13,2.94-1.2,3.6-1.32,.66-2.94,.13-3.6-1.2-.66-1.32-.13-2.94,1.2-3.6,1.32-.66,2.94-.13,3.6,1.2Z"/>
        <path class="k" d="M1186.27,3.2c.75,1.5,.15,3.33-1.36,4.09s-3.33,.15-4.09-1.36-.15-3.33,1.36-4.09,3.33-.15,4.09,1.36Z"/>
        <path class="ab" d="M1194.08,243.01c.72,1.44,.14,3.18-1.3,3.9-1.44,.72-3.18,.14-3.9-1.3-.72-1.44-.14-3.18,1.3-3.9,1.44-.72,3.18-.14,3.9,1.3Z"/>
        <path class="m" d="M1190.96,441.26c.7,1.39,.14,3.09-1.26,3.78-1.39,.7-3.08,.14-3.78-1.26-.7-1.39-.14-3.09,1.26-3.78,1.39-.7,3.08-.14,3.78,1.26Z"/>
        <path class="ac" d="M1199.83,591.91c.66,1.32,.13,2.94-1.2,3.6-1.32,.66-2.94,.13-3.6-1.2-.66-1.32-.13-2.94,1.2-3.6,1.32-.66,2.94-.13,3.6,1.2Z"/>
        <path class="af" d="M1230.54,679.73c.63,1.26,.12,2.79-1.13,3.42-1.26,.63-2.79,.12-3.42-1.13s-.12-2.79,1.13-3.42c1.26-.63,2.79-.12,3.42,1.13Z"/>
        <path class="p" d="M910.48,120.98c.6,1.19,.12,2.64-1.07,3.23-1.19,.6-2.64,.12-3.23-1.07-.6-1.19-.12-2.64,1.07-3.23,1.19-.6,2.64-.12,3.23,1.07Z"/>
        <path class="af" d="M943.01,240.03c.63,1.26,.12,2.79-1.13,3.42-1.26,.63-2.79,.12-3.42-1.13-.63-1.26-.12-2.79,1.13-3.42s2.79-.12,3.42,1.13Z"/>
        <path class="j" d="M961.92,407.87c.64,1.28,.12,2.84-1.15,3.48-1.28,.64-2.84,.12-3.48-1.16-.64-1.28-.12-2.84,1.16-3.48,1.28-.64,2.84-.12,3.48,1.15Z"/>
        <path class="ai" d="M969,593.79c.65,1.3,.13,2.89-1.18,3.54-1.3,.65-2.89,.13-3.54-1.18-.65-1.3-.13-2.89,1.18-3.54,1.3-.65,2.89-.13,3.54,1.18Z"/>
        <path class="ai" d="M980.63,781.19c.65,1.3,.13,2.89-1.18,3.54-1.3,.65-2.89,.13-3.54-1.18-.65-1.3-.13-2.89,1.18-3.54,1.3-.65,2.89-.13,3.54,1.18Z"/>
        <path class="j" d="M1016.5,956.18c.64,1.28,.12,2.84-1.15,3.48-1.28,.64-2.84,.12-3.48-1.15-.64-1.28-.12-2.84,1.16-3.48,1.28-.64,2.84-.12,3.48,1.16Z"/>
        <path class="o" d="M831.68,521.93c.53,1.05,.1,2.34-.95,2.87-1.05,.53-2.34,.1-2.87-.95-.53-1.05-.1-2.34,.95-2.87,1.05-.53,2.34-.1,2.87,.95Z"/>
        <path class="aq" d="M804.84,518.41c.57,1.14,.11,2.54-1.03,3.11-1.14,.57-2.54,.11-3.11-1.03-.57-1.14-.11-2.54,1.03-3.11,1.14-.57,2.54-.11,3.11,1.03Z"/>
        <path class="p" d="M779.76,596.27c.61,1.21,.12,2.69-1.09,3.29-1.21,.61-2.69,.12-3.29-1.09-.61-1.21-.12-2.69,1.09-3.29,1.21-.61,2.69-.12,3.29,1.09Z"/>
        <path class="af" d="M747.87,731.45c.63,1.26,.12,2.79-1.13,3.42-1.26,.63-2.79,.12-3.42-1.13-.63-1.26-.12-2.79,1.13-3.42s2.79-.12,3.42,1.13Z"/>
        <path class="ai" d="M711.78,908.15c.65,1.3,.13,2.89-1.18,3.54-1.3,.65-2.89,.13-3.54-1.18-.65-1.3-.13-2.89,1.18-3.54,1.3-.65,2.89-.13,3.54,1.18Z"/>
        <path class="l" d="M681.36,1122.03c.68,1.35,.13,2.99-1.22,3.66-1.35,.68-2.99,.13-3.66-1.22-.68-1.35-.13-2.99,1.22-3.66,1.35-.68,2.99-.13,3.66,1.22Z"/>
        <path class="aj" d="M698.79,689.75c.52,1.03,.1,2.29-.93,2.81-1.03,.52-2.29,.1-2.81-.93-.52-1.03-.1-2.29,.93-2.81,1.03-.52,2.29-.1,2.81,.93Z"/>
        <path class="ag" d="M645.4,608.01c.55,1.1,.11,2.44-.99,2.99-1.1,.55-2.44,.11-2.99-.99-.55-1.1-.11-2.44,.99-2.99s2.44-.11,2.99,.99Z"/>
        <path class="ad" d="M589,606.99c.59,1.17,.11,2.59-1.05,3.17-1.17,.59-2.59,.11-3.17-1.05-.59-1.17-.11-2.59,1.05-3.17s2.59-.11,3.17,1.05Z"/>
        <path class="ao" d="M527.01,673.92c.62,1.23,.12,2.74-1.11,3.36s-2.74,.12-3.36-1.11-.12-2.74,1.11-3.36,2.74-.12,3.36,1.11Z"/>
        <path class="af" d="M459.33,795.73c.63,1.26,.12,2.79-1.13,3.42-1.26,.63-2.79,.12-3.42-1.13-.63-1.26-.12-2.79,1.13-3.42,1.26-.63,2.79-.12,3.42,1.13Z"/>
        <path class="j" d="M385.05,966.15c.64,1.28,.12,2.84-1.15,3.48-1.28,.64-2.84,.12-3.48-1.15-.64-1.28-.12-2.84,1.15-3.48,1.28-.64,2.84-.12,3.48,1.16Z"/>
        <path class="am" d="M1534.78,1123.36c.9,1.8,.17,3.98-1.62,4.88-1.8,.9-3.98,.17-4.88-1.62-.9-1.8-.17-3.98,1.62-4.88,1.8-.9,3.98-.17,4.88,1.62Z"/>
        <path class="as" d="M1509.73,1018.92c.79,1.57,.15,3.48-1.42,4.27-1.57,.79-3.48,.15-4.27-1.42-.79-1.57-.15-3.48,1.42-4.27,1.57-.79,3.48-.15,4.27,1.42Z"/>
        <path class="l" d="M1501.47,872.34c.69,1.37,.13,3.04-1.24,3.72s-3.04,.13-3.72-1.24-.13-3.04,1.24-3.72,3.04-.13,3.72,1.24Z"/>
        <path class="am" d="M1678.18,640.7c.92,1.84,.18,4.08-1.66,5-1.84,.92-4.08,.18-5-1.66-.92-1.84-.18-4.08,1.66-5,1.84-.92,4.08-.18,5,1.66Z"/>
        <path class="am" d="M1482.41,732.9c.88,1.75,.17,3.88-1.58,4.76-1.75,.88-3.88,.17-4.76-1.58-.88-1.75-.17-3.88,1.58-4.76,1.75-.88,3.88-.17,4.76,1.58Z"/>
        <circle class="z" cx="1351.78" cy="806.94" r="3.32"/>
        <path class="ak" d="M1299.15,861.5c.75,1.5,.15,3.33-1.36,4.09-1.5,.75-3.33,.15-4.09-1.36s-.15-3.33,1.36-4.09,3.33-.15,4.09,1.36Z"/>
        <path class="l" d="M1295.66,888.32c.69,1.37,.13,3.04-1.24,3.72s-3.04,.13-3.72-1.24-.13-3.04,1.24-3.72,3.04-.13,3.72,1.24Z"/>
        <path class="am" d="M1561.77,2.62c.91,1.82,.18,4.03-1.64,4.94-1.82,.91-4.03,.18-4.94-1.64-.91-1.82-.18-4.03,1.64-4.94,1.82-.91,4.03-.18,4.94,1.64Z"/>
        <path class="am" d="M1394,254.44c.86,1.71,.17,3.78-1.54,4.64-1.71,.86-3.78,.17-4.64-1.54-.86-1.71-.17-3.78,1.54-4.64,1.71-.86,3.78-.17,4.64,1.54Z"/>
        <circle class="z" cx="1242.1" cy="464.74" r="3.32"/>
        <path class="u" d="M1131.16,648.96c.78,1.55,.15,3.43-1.4,4.21-1.55,.78-3.43,.15-4.21-1.4-.78-1.55-.15-3.43,1.4-4.21,1.55-.78,3.43-.15,4.21,1.4Z"/>
        <path class="h" d="M1064.78,826.2c.73,1.46,.14,3.23-1.32,3.97-1.46,.73-3.23,.14-3.97-1.32-.73-1.46-.14-3.23,1.32-3.97,1.46-.73,3.23-.14,3.97,1.32Z"/>
        <path class="ar" d="M1047.51,1001.29c.71,1.41,.14,3.13-1.28,3.84-1.41,.71-3.13,.14-3.84-1.28-.71-1.41-.14-3.13,1.28-3.84,1.41-.71,3.13-.14,3.84,1.28Z"/>
        <path class="u" d="M1067.15,120.08c.78,1.55,.15,3.43-1.4,4.21-1.55,.78-3.43,.15-4.21-1.4-.78-1.55-.15-3.43,1.4-4.21,1.55-.78,3.43-.15,4.21,1.4Z"/>
        <path class="ab" d="M732.97,1030.65c.72,1.44,.14,3.18-1.3,3.9-1.44,.72-3.18,.14-3.9-1.3-.72-1.44-.14-3.18,1.3-3.9,1.44-.72,3.18-.14,3.9,1.3Z"/>
        <path class="j" d="M853.66,49.45c.64,1.28,.12,2.84-1.15,3.48-1.28,.64-2.84,.12-3.48-1.15-.64-1.28-.12-2.84,1.16-3.48,1.28-.64,2.84-.12,3.48,1.16Z"/>
        <path class="ac" d="M840.62,205.18c.68,1.35,.13,2.99-1.22,3.66s-2.99,.13-3.66-1.22-.13-2.99,1.22-3.66c1.35-.68,2.99-.13,3.66,1.22Z"/>
        <path class="n" d="M788.99,372.79c.69,1.37,.13,3.04-1.24,3.72s-3.04,.13-3.72-1.24-.13-3.04,1.24-3.72,3.04-.13,3.72,1.24Z"/>
        <path class="m" d="M698.75,539.16c.7,1.39,.14,3.08-1.26,3.78-1.39,.7-3.08,.14-3.78-1.26-.7-1.39-.14-3.08,1.26-3.78s3.08-.14,3.78,1.26Z"/>
        <path class="ar" d="M582.5,700.72c.71,1.41,.14,3.13-1.28,3.84-1.41,.71-3.13,.14-3.84-1.28-.71-1.41-.14-3.13,1.28-3.84,1.41-.71,3.13-.14,3.84,1.28Z"/>
        <path class="m" d="M457.43,863.34c.7,1.39,.14,3.08-1.26,3.78s-3.09,.14-3.78-1.26c-.7-1.39-.14-3.08,1.26-3.78,1.39-.7,3.09-.14,3.78,1.26Z"/>
        <path class="x" d="M768.25,357.5c.54,1.08,.1,2.39-.97,2.93s-2.39,.1-2.93-.97c-.54-1.08-.1-2.39,.97-2.93,1.08-.54,2.39-.1,2.93,.97Z"/>
        <path class="ad" d="M704.05,337.37c.6,1.19,.12,2.64-1.07,3.23-1.19,.6-2.64,.12-3.23-1.07-.6-1.19-.12-2.64,1.07-3.23,1.19-.6,2.64-.12,3.23,1.07Z"/>
        <path class="j" d="M625.81,362.15c.64,1.28,.12,2.84-1.16,3.48-1.28,.64-2.84,.12-3.48-1.16-.64-1.28-.12-2.84,1.15-3.48,1.28-.64,2.84-.12,3.48,1.15Z"/>
        <path class="l" d="M523.03,414.04c.68,1.35,.13,2.99-1.22,3.66-1.35,.68-2.99,.13-3.66-1.22-.68-1.35-.13-2.99,1.22-3.66,1.35-.68,2.99-.13,3.66,1.22Z"/>
        <path class="n" d="M400.43,478.76c.69,1.37,.13,3.04-1.24,3.72s-3.04,.13-3.72-1.24-.13-3.04,1.24-3.72,3.04-.13,3.72,1.24Z"/>
        <path class="ac" d="M281.98,553.16c.68,1.35,.13,2.99-1.22,3.66-1.35,.68-2.99,.13-3.66-1.22-.68-1.35-.13-2.99,1.22-3.66s2.99-.13,3.66,1.22Z"/>
        <path class="am" d="M1442.65,1134.52c1.15,2.29,.22,5.08-2.07,6.22s-5.08,.22-6.22-2.07c-1.15-2.29-.22-5.08,2.07-6.22,2.29-1.15,5.08-.22,6.22,2.07Z"/>
        <path class="am" d="M1237.87,1060.79c1.01,2.02,.2,4.48-1.82,5.49-2.02,1.01-4.48,.2-5.49-1.82-1.01-2.02-.2-4.48,1.82-5.49,2.02-1.01,4.48-.2,5.49,1.82Z"/>
        <path class="am" d="M1119.13,1059.15c.9,1.8,.17,3.98-1.62,4.88-1.8,.9-3.98,.17-4.88-1.62-.9-1.8-.17-3.98,1.62-4.88,1.8-.9,3.98-.17,4.88,1.62Z"/>
        <path class="q" d="M1059.69,1116.67c.82,1.64,.16,3.63-1.48,4.45s-3.63,.16-4.45-1.48c-.82-1.64-.16-3.63,1.48-4.45s3.63-.16,4.45,1.48Z"/>
        <path class="am" d="M1778.28,606.78c1.02,2.04,.2,4.53-1.84,5.55-2.04,1.02-4.53,.2-5.55-1.84s-.2-4.53,1.84-5.55,4.53-.2,5.55,1.84Z"/>
        <path class="am" d="M1451.97,650.89c1,2,.19,4.43-1.8,5.43-2,1-4.43,.19-5.43-1.8-1-2-.19-4.43,1.8-5.43,2-1,4.43-.19,5.43,1.8Z"/>
        <path class="am" d="M1173.29,715.86c.93,1.86,.18,4.13-1.68,5.06s-4.13,.18-5.06-1.68c-.93-1.86-.18-4.13,1.68-5.06,1.86-.93,4.13-.18,5.06,1.68Z"/>
        <path class="am" d="M965.26,815.44c.88,1.75,.17,3.88-1.58,4.76-1.75,.88-3.88,.17-4.76-1.58s-.17-3.88,1.58-4.76c1.75-.88,3.88-.17,4.76,1.58Z"/>
        <path class="q" d="M813.96,952.52c.82,1.64,.16,3.63-1.48,4.45s-3.63,.16-4.45-1.48-.16-3.63,1.48-4.45c1.64-.82,3.63-.16,4.45,1.48Z"/>
        <path class="r" d="M689.59,1125.98c.8,1.59,.15,3.53-1.44,4.33-1.59,.8-3.53,.15-4.33-1.44-.8-1.59-.15-3.53,1.44-4.33,1.59-.8,3.53-.15,4.33,1.44Z"/>
        <path class="am" d="M1538.13,66.74c.98,1.95,.19,4.33-1.76,5.31-1.95,.98-4.33,.19-5.31-1.76-.98-1.95-.19-4.33,1.76-5.31,1.95-.98,4.33-.19,5.31,1.76Z"/>
        <path class="am" d="M1274.96,258.29c.93,1.86,.18,4.13-1.68,5.06-1.86,.93-4.13,.18-5.06-1.68-.93-1.86-.18-4.13,1.68-5.06,1.86-.93,4.13-.18,5.06,1.68Z"/>
        <path class="u" d="M445.38,862.22c.78,1.55,.15,3.43-1.4,4.21-1.55,.78-3.43,.15-4.21-1.4-.78-1.55-.15-3.43,1.4-4.21,1.55-.78,3.43-.15,4.21,1.4Z"/>
        <path class="am" d="M997.07,17.51c.84,1.68,.16,3.73-1.52,4.58-1.68,.84-3.73,.16-4.58-1.52-.84-1.68-.16-3.73,1.52-4.58s3.73-.16,4.58,1.52Z"/>
        <path class="q" d="M858.33,223.46c.82,1.64,.16,3.63-1.48,4.45s-3.63,.16-4.45-1.48-.16-3.63,1.48-4.45,3.63-.16,4.45,1.48Z"/>
        <path class="z" d="M687.67,375.89c.82,1.64,.16,3.63-1.48,4.45s-3.63,.16-4.45-1.48-.16-3.63,1.48-4.45,3.63-.16,4.45,1.48Z"/>
        <path class="ah" d="M493.93,478.32c.8,1.59,.15,3.53-1.44,4.33-1.59,.8-3.53,.15-4.33-1.44-.8-1.59-.15-3.53,1.44-4.33,1.59-.8,3.53-.15,4.33,1.44Z"/>
        <path class="w" d="M306.22,538.92c.77,1.53,.15,3.38-1.38,4.15-1.53,.77-3.38,.15-4.15-1.38-.76-1.53-.15-3.38,1.38-4.15,1.53-.76,3.38-.15,4.15,1.38Z"/>
        <path class="ak" d="M688.56,109.8c.75,1.5,.15,3.33-1.36,4.09s-3.33,.15-4.09-1.36-.15-3.33,1.36-4.09,3.33-.15,4.09,1.36Z"/>
        <path class="as" d="M562.02,177.01c.79,1.57,.15,3.48-1.42,4.27-1.57,.79-3.48,.15-4.27-1.42s-.15-3.48,1.42-4.27c1.57-.79,3.48-.15,4.27,1.42Z"/>
        <circle class="q" cx="387.4" cy="200.84" r="3.32"/>
        <path class="am" d="M187.87,177.11c.84,1.68,.16,3.73-1.52,4.58-1.68,.84-3.73,.16-4.58-1.52-.84-1.68-.16-3.73,1.52-4.58,1.68-.84,3.73-.16,4.58,1.52Z"/>
        <path class="am" d="M1158.96,1024.69c1.24,2.47,.24,5.47-2.23,6.71-2.47,1.24-5.47,.24-6.71-2.23-1.24-2.47-.24-5.47,2.23-6.71,2.47-1.24,5.47-.24,6.71,2.23Z"/>
        <path class="am" d="M891.49,916.49c1.09,2.18,.21,4.83-1.97,5.92-2.18,1.09-4.83,.21-5.92-1.97s-.21-4.83,1.97-5.92c2.18-1.09,4.83-.21,5.92,1.97Z"/>
        <path class="am" d="M670.13,892.83c.98,1.95,.19,4.33-1.76,5.31-1.95,.98-4.33,.19-5.31-1.76-.98-1.95-.19-4.33,1.76-5.31,1.95-.98,4.33-.19,5.31,1.76Z"/>
        <path class="am" d="M476.44,918.5c.9,1.8,.17,3.98-1.62,4.88-1.8,.9-3.98,.17-4.88-1.62s-.17-3.98,1.62-4.88c1.8-.9,3.98-.17,4.88,1.62Z"/>
        <path class="aa" d="M296.03,959.17c.83,1.66,.16,3.68-1.5,4.51-1.66,.83-3.68,.16-4.51-1.5s-.16-3.68,1.5-4.51c1.66-.83,3.68-.16,4.51,1.5Z"/>
        <path class="am" d="M1791.93,650.53c1.15,2.29,.22,5.08-2.07,6.22-2.29,1.15-5.08,.22-6.22-2.07-1.15-2.29-.22-5.08,2.07-6.22,2.29-1.15,5.08-.22,6.22,2.07Z"/>
        <path class="am" d="M1391.94,590.68c1.11,2.22,.22,4.93-2.01,6.04-2.22,1.11-4.93,.22-6.04-2.01-1.11-2.22-.22-4.93,2.01-6.04,2.22-1.11,4.93-.22,6.04,2.01Z"/>
        <path class="am" d="M222.71,580.18c.86,1.71,.17,3.78-1.54,4.64-1.71,.86-3.78,.17-4.64-1.54s-.17-3.78,1.54-4.64c1.71-.86,3.78-.17,4.64,1.54Z"/>
        <path class="am" d="M1680.42,19.3c1.09,2.18,.21,4.83-1.97,5.92-2.18,1.09-4.83,.21-5.92-1.97s-.21-4.83,1.97-5.92c2.18-1.09,4.83-.21,5.92,1.97Z"/>
        <path class="am" d="M1334.31,113.56c1.06,2.11,.2,4.68-1.9,5.73-2.11,1.06-4.68,.2-5.73-1.9-1.06-2.11-.2-4.68,1.9-5.73,2.11-1.06,4.68-.21,5.73,1.9Z"/>
        <path class="am" d="M1030.76,207.33c1.02,2.04,.2,4.53-1.84,5.55-2.04,1.02-4.53,.2-5.55-1.84s-.2-4.53,1.84-5.55,4.53-.2,5.55,1.84Z"/>
        <path class="am" d="M752.02,270.86c1,2,.19,4.43-1.8,5.43-2,1-4.43,.19-5.43-1.8-1-2-.19-4.43,1.8-5.43,2-1,4.43-.19,5.43,1.8Z"/>
        <path class="am" d="M480.62,281.79c.99,1.98,.19,4.38-1.78,5.37-1.98,.99-4.38,.19-5.37-1.78-.99-1.97-.19-4.38,1.78-5.37,1.97-.99,4.38-.19,5.37,1.78Z"/>
        <path class="am" d="M213.89,229.72c.98,1.95,.19,4.33-1.76,5.31-1.95,.98-4.33,.19-5.31-1.76-.98-1.95-.19-4.33,1.76-5.31,1.95-.98,4.33-.19,5.31,1.76Z"/>
        <path class="am" d="M35.59,1081.1c.86,1.71,.17,3.78-1.54,4.64-1.71,.86-3.78,.17-4.64-1.54-.86-1.71-.17-3.78,1.54-4.64,1.71-.86,3.78-.17,4.64,1.54Z"/>
        <path class="am" d="M368.09,1121.96c1.42,2.83,.27,6.27-2.55,7.69-2.83,1.42-6.27,.27-7.69-2.55-1.42-2.83-.27-6.27,2.55-7.69,2.83-1.42,6.27-.27,7.69,2.55Z"/>
        <path class="am" d="M373.7,959.33c1.22,2.42,.24,5.37-2.19,6.59-2.42,1.22-5.37,.24-6.59-2.19-1.22-2.42-.24-5.37,2.19-6.59,2.42-1.22,5.37-.24,6.59,2.19Z"/>
        <path class="am" d="M271.28,837.89c1.07,2.13,.21,4.73-1.92,5.8-2.13,1.07-4.73,.21-5.8-1.92-1.07-2.13-.21-4.73,1.92-5.8,2.13-1.07,4.73-.21,5.8,1.92Z"/>
        <path class="am" d="M134.25,736.81c.96,1.91,.19,4.23-1.72,5.19-1.91,.96-4.23,.19-5.19-1.72-.96-1.91-.19-4.23,1.72-5.19,1.91-.96,4.23-.19,5.19,1.72Z"/>
        <path class="am" d="M6.63,631.46c.87,1.73,.17,3.83-1.56,4.7-1.73,.87-3.83,.17-4.7-1.56-.87-1.73-.17-3.83,1.56-4.7,1.73-.87,3.83-.17,4.7,1.56Z"/>
        <path class="am" d="M1137.45,954.52c1.45,2.9,.28,6.42-2.61,7.87-2.89,1.45-6.42,.28-7.87-2.61-1.45-2.89-.28-6.42,2.61-7.87,2.89-1.45,6.42-.28,7.87,2.61Z"/>
        <path class="am" d="M839.27,733.12c1.29,2.58,.25,5.72-2.33,7.02-2.58,1.29-5.72,.25-7.02-2.33-1.29-2.58-.25-5.72,2.33-7.02,2.58-1.29,5.72-.25,7.02,2.33Z"/>
        <path class="am" d="M550.59,578.05c1.2,2.4,.23,5.32-2.17,6.53s-5.32,.23-6.53-2.17c-1.2-2.4-.23-5.32,2.17-6.53,2.4-1.2,5.32-.23,6.53,2.17Z"/>
        <path class="am" d="M284.83,442.6c1.13,2.24,.22,4.98-2.03,6.1-2.24,1.13-4.98,.22-6.1-2.03-1.13-2.24-.22-4.98,2.03-6.1,2.24-1.13,4.98-.22,6.1,2.03Z"/>
        <path class="am" d="M39.31,289.74c1.1,2.2,.21,4.88-1.99,5.98-2.2,1.1-4.88,.21-5.98-1.99-1.1-2.2-.21-4.88,1.99-5.98,2.2-1.1,4.88-.21,5.98,1.99Z"/>
        <path class="am" d="M1669.24,511.39c1.27,2.54,.25,5.62-2.29,6.89-2.54,1.27-5.62,.25-6.89-2.29-1.27-2.54-.25-5.62,2.29-6.89,2.54-1.27,5.62-.25,6.89,2.29Z"/>
        <path class="am" d="M1289.3,376.75c1.26,2.51,.24,5.57-2.27,6.83-2.51,1.26-5.57,.24-6.83-2.27-1.26-2.51-.24-5.57,2.27-6.83s5.57-.24,6.83,2.27Z"/>
        <path class="am" d="M950.07,275.6c1.26,2.51,.24,5.57-2.27,6.83-2.51,1.26-5.57,.24-6.83-2.27-1.26-2.51-.24-5.57,2.27-6.83,2.51-1.26,5.57-.24,6.83,2.27Z"/>
        <path class="am" d="M656.79,168.65c1.29,2.58,.25,5.72-2.33,7.02-2.58,1.29-5.72,.25-7.02-2.33-1.29-2.58-.25-5.72,2.33-7.02,2.58-1.29,5.72-.25,7.02,2.33Z"/>
        <path class="am" d="M397.39,22.79c1.42,2.83,.27,6.27-2.55,7.69-2.83,1.42-6.27,.27-7.69-2.55-1.42-2.83-.27-6.27,2.55-7.69,2.83-1.42,6.27-.27,7.69,2.55Z"/>
      </g>
    </g>
  </g>
</svg>