<svg xmlns="http://www.w3.org/2000/svg" xmlns:xlink="http://www.w3.org/1999/xlink" width="500" zoomAndPan="magnify" viewBox="0 0 375 374.999991" height="500" preserveAspectRatio="xMidYMid meet" version="1.0"><defs><clipPath id="6851179f9e"><path d="M 217 137 L 337.5 137 L 337.5 238 L 217 238 Z M 217 137 " clip-rule="nonzero"/></clipPath><clipPath id="f535c4e39c"><path d="M 37.5 137 L 141 137 L 141 238 L 37.5 238 Z M 37.5 137 " clip-rule="nonzero"/></clipPath></defs><rect x="-37.5" width="450" fill="transparent" y="-37.499999" height="449.999989" fill-opacity="1"/><rect x="-37.5" width="450" fill="#ffffff" y="-37.499999" height="449.999989" fill-opacity="0"/><rect x="-37.5" width="450" fill="#ffffff" y="-37.499999" height="449.999989" fill-opacity="0"/><g clip-path="url(#6851179f9e)"><path fill="#a2caff" d="M 302.503906 187.460938 L 287.460938 172.433594 L 272.414062 187.460938 L 287.460938 202.484375 Z M 287.460938 137.476562 C 288.339844 137.476562 289.21875 137.8125 289.894531 138.484375 L 336.492188 185.027344 C 337.136719 185.675781 337.496094 186.550781 337.496094 187.460938 C 337.496094 188.375 337.136719 189.246094 336.492188 189.890625 L 289.894531 236.4375 C 288.546875 237.777344 286.371094 237.777344 285.023438 236.4375 L 254.203125 205.652344 L 253.847656 206.007812 C 252.503906 207.351562 250.324219 207.351562 248.980469 206.007812 C 247.636719 204.664062 247.636719 202.488281 248.980469 201.144531 L 285.023438 165.140625 C 286.371094 163.796875 288.546875 163.796875 289.894531 165.140625 L 309.804688 185.027344 C 310.449219 185.675781 310.8125 186.550781 310.8125 187.460938 C 310.8125 188.375 310.449219 189.246094 309.804688 189.890625 L 289.894531 209.78125 C 288.546875 211.121094 286.371094 211.125 285.023438 209.78125 L 267.546875 192.324219 L 259.074219 200.789062 L 287.460938 229.140625 L 329.1875 187.460938 L 287.460938 145.777344 L 223.394531 209.773438 C 222.050781 211.113281 219.871094 211.113281 218.527344 209.773438 C 217.183594 208.425781 217.183594 206.253906 218.527344 204.910156 L 285.023438 138.484375 C 285.695312 137.8125 286.578125 137.476562 287.460938 137.476562 " fill-opacity="1" fill-rule="nonzero"/></g><path fill="#a2caff" d="M 187.714844 130.90625 C 188.59375 130.90625 189.476562 131.242188 190.148438 131.917969 L 223.398438 165.128906 C 224.742188 166.472656 224.742188 168.648438 223.398438 169.992188 C 222.054688 171.335938 219.875 171.335938 218.53125 169.992188 L 185.28125 136.777344 C 183.933594 135.4375 183.933594 133.257812 185.28125 131.917969 C 185.953125 131.242188 186.832031 130.90625 187.714844 130.90625 Z M 236.007812 121.015625 L 220.964844 105.988281 L 205.921875 121.015625 L 220.964844 136.042969 Z M 220.964844 97.683594 C 221.875 97.683594 222.75 98.046875 223.398438 98.695312 L 243.308594 118.585938 C 244.652344 119.925781 244.652344 122.105469 243.308594 123.449219 L 223.398438 143.339844 C 222.105469 144.628906 219.820312 144.628906 218.53125 143.339844 L 198.617188 123.449219 C 197.273438 122.105469 197.273438 119.925781 198.617188 118.585938 L 218.53125 98.695312 C 219.175781 98.046875 220.050781 97.683594 220.964844 97.683594 Z M 220.964844 71.03125 C 221.875 71.03125 222.75 71.390625 223.398438 72.039062 L 269.992188 118.585938 C 271.335938 119.925781 271.335938 122.105469 269.996094 123.449219 L 236.757812 156.65625 C 235.414062 157.996094 233.234375 157.996094 231.890625 156.65625 C 230.542969 155.3125 230.542969 153.136719 231.886719 151.792969 L 262.691406 121.015625 L 220.964844 79.332031 L 176.796875 123.449219 C 175.457031 124.789062 173.277344 124.789062 171.933594 123.449219 C 170.585938 122.105469 170.585938 119.925781 171.933594 118.585938 L 218.53125 72.039062 C 219.175781 71.390625 220.050781 71.03125 220.964844 71.03125 " fill-opacity="1" fill-rule="nonzero"/><path fill="#a2caff" d="M 187.699219 197.332031 C 188.582031 197.332031 189.460938 197.667969 190.132812 198.339844 L 223.402344 231.570312 C 224.746094 232.914062 224.746094 235.089844 223.402344 236.433594 C 222.054688 237.777344 219.878906 237.777344 218.53125 236.433594 L 185.265625 203.199219 C 183.921875 201.859375 183.921875 199.679688 185.265625 198.339844 C 185.9375 197.667969 186.820312 197.332031 187.699219 197.332031 Z M 267.566406 184.015625 C 268.445312 184.015625 269.328125 184.355469 270 185.027344 C 271.34375 186.367188 271.34375 188.546875 270 189.890625 L 236.730469 223.121094 C 235.386719 224.460938 233.207031 224.460938 231.863281 223.121094 C 230.519531 221.773438 230.519531 219.597656 231.863281 218.253906 L 265.132812 185.027344 C 265.804688 184.355469 266.683594 184.015625 267.566406 184.015625 Z M 236.011719 187.457031 L 220.964844 172.429688 L 205.921875 187.457031 L 220.964844 202.484375 Z M 220.964844 164.128906 C 221.847656 164.128906 222.726562 164.464844 223.402344 165.132812 L 243.316406 185.023438 C 243.960938 185.667969 244.324219 186.542969 244.324219 187.457031 C 244.324219 188.367188 243.960938 189.246094 243.316406 189.890625 L 223.402344 209.78125 C 222.054688 211.121094 219.878906 211.121094 218.53125 209.78125 L 198.621094 189.886719 C 197.277344 188.546875 197.277344 186.367188 198.621094 185.027344 L 218.53125 165.132812 C 219.207031 164.464844 220.085938 164.128906 220.964844 164.128906 Z M 207.640625 150.789062 C 208.523438 150.789062 209.402344 151.121094 210.074219 151.792969 C 211.417969 153.136719 211.417969 155.316406 210.074219 156.65625 L 176.804688 189.890625 C 175.460938 191.230469 173.28125 191.230469 171.9375 189.886719 C 170.59375 188.546875 170.59375 186.367188 171.9375 185.023438 L 205.207031 151.792969 C 205.878906 151.121094 206.757812 150.789062 207.640625 150.789062 Z M 220.964844 137.472656 C 221.847656 137.472656 222.726562 137.808594 223.402344 138.480469 L 256.644531 171.683594 C 257.988281 173.027344 257.988281 175.203125 256.644531 176.546875 C 255.296875 177.890625 253.121094 177.890625 251.773438 176.546875 L 218.53125 143.34375 C 217.1875 142 217.1875 139.824219 218.53125 138.480469 C 219.207031 137.808594 220.085938 137.472656 220.964844 137.472656 " fill-opacity="1" fill-rule="nonzero"/><path fill="#a2caff" d="M 220.964844 164.125 C 221.847656 164.125 222.726562 164.460938 223.402344 165.132812 C 224.746094 166.476562 224.746094 168.65625 223.402344 169.996094 L 190.160156 203.199219 C 188.816406 204.542969 186.636719 204.542969 185.292969 203.199219 C 183.949219 201.855469 183.949219 199.679688 185.292969 198.335938 L 218.53125 165.132812 C 219.207031 164.460938 220.085938 164.125 220.964844 164.125 Z M 202.769531 154.222656 L 187.726562 139.195312 L 172.683594 154.222656 L 187.726562 169.25 Z M 187.726562 130.894531 C 188.605469 130.894531 189.488281 131.230469 190.160156 131.902344 L 210.074219 151.792969 C 210.71875 152.4375 211.082031 153.308594 211.082031 154.222656 C 211.082031 155.136719 210.71875 156.011719 210.074219 156.65625 L 190.160156 176.546875 C 189.515625 177.191406 188.640625 177.550781 187.726562 177.550781 C 186.8125 177.550781 185.9375 177.191406 185.292969 176.546875 L 165.382812 156.65625 C 164.035156 155.3125 164.035156 153.132812 165.382812 151.792969 L 185.292969 131.902344 C 185.964844 131.230469 186.847656 130.894531 187.726562 130.894531 Z M 201.066406 117.566406 C 201.945312 117.566406 202.828125 117.898438 203.5 118.570312 L 225.058594 140.105469 C 226.40625 141.449219 226.40625 143.628906 225.058594 144.96875 C 223.71875 146.3125 221.535156 146.3125 220.191406 144.96875 L 198.628906 123.433594 C 197.285156 122.089844 197.285156 119.914062 198.628906 118.570312 C 199.300781 117.898438 200.183594 117.566406 201.066406 117.566406 Z M 187.726562 104.242188 C 188.605469 104.242188 189.488281 104.574219 190.160156 105.25 C 191.507812 106.589844 191.507812 108.765625 190.160156 110.109375 L 157.480469 142.753906 C 156.136719 144.09375 153.960938 144.097656 152.613281 142.753906 C 151.269531 141.40625 151.269531 139.230469 152.613281 137.886719 L 185.292969 105.25 C 185.964844 104.574219 186.847656 104.242188 187.726562 104.242188 " fill-opacity="1" fill-rule="nonzero"/><path fill="#a2caff" d="M 169.503906 121.019531 L 154.460938 105.996094 L 139.417969 121.019531 L 154.460938 136.050781 Z M 154.460938 97.695312 C 155.34375 97.695312 156.222656 98.03125 156.894531 98.703125 L 176.808594 118.589844 C 178.152344 119.933594 178.152344 122.109375 176.808594 123.453125 L 159.332031 140.914062 L 167.800781 149.375 L 198.625 118.589844 C 199.96875 117.246094 202.148438 117.246094 203.492188 118.589844 C 204.835938 119.933594 204.835938 122.109375 203.492188 123.453125 L 170.253906 156.65625 C 170.082031 156.832031 169.890625 156.980469 169.695312 157.109375 C 168.359375 157.992188 166.542969 157.84375 165.363281 156.667969 L 132.113281 123.453125 C 131.46875 122.808594 131.105469 121.933594 131.105469 121.019531 C 131.105469 120.109375 131.46875 119.234375 132.113281 118.589844 L 152.027344 98.699219 C 152.699219 98.03125 153.582031 97.695312 154.460938 97.695312 Z M 154.460938 71.039062 C 155.34375 71.039062 156.222656 71.375 156.894531 72.046875 L 190.148438 105.261719 C 191.492188 106.605469 191.492188 108.78125 190.148438 110.125 C 188.800781 111.464844 186.625 111.464844 185.28125 110.125 L 154.460938 79.339844 L 112.730469 121.019531 L 156.894531 165.136719 C 158.242188 166.480469 158.242188 168.65625 156.894531 170 C 155.550781 171.34375 153.371094 171.34375 152.027344 170 L 105.429688 123.453125 C 104.78125 122.808594 104.421875 121.933594 104.421875 121.019531 C 104.421875 120.109375 104.78125 119.234375 105.429688 118.589844 L 152.027344 72.046875 C 152.699219 71.375 153.582031 71.039062 154.460938 71.039062 " fill-opacity="1" fill-rule="nonzero"/><path fill="#a2caff" d="M 187.699219 237.109375 C 188.582031 237.109375 189.460938 237.445312 190.132812 238.113281 C 191.480469 239.457031 191.480469 241.636719 190.132812 242.980469 L 176.777344 256.320312 C 175.433594 257.664062 173.253906 257.664062 171.910156 256.320312 C 170.566406 254.980469 170.566406 252.800781 171.910156 251.460938 L 185.265625 238.117188 C 185.9375 237.445312 186.820312 237.109375 187.699219 237.109375 Z M 235.984375 253.890625 L 220.941406 238.863281 L 205.898438 253.890625 L 220.941406 268.917969 Z M 220.941406 230.558594 C 221.851562 230.558594 222.726562 230.921875 223.375 231.566406 L 243.285156 251.460938 C 244.632812 252.800781 244.632812 254.980469 243.285156 256.320312 L 223.375 276.214844 C 222.082031 277.503906 219.796875 277.503906 218.503906 276.214844 L 198.59375 256.320312 C 197.25 254.980469 197.25 252.800781 198.59375 251.460938 L 218.503906 231.566406 C 219.152344 230.921875 220.027344 230.558594 220.941406 230.558594 Z M 220.941406 203.902344 C 221.820312 203.902344 222.703125 204.242188 223.375 204.910156 L 269.96875 251.460938 C 270.617188 252.101562 270.980469 252.976562 270.980469 253.890625 C 270.980469 254.804688 270.617188 255.675781 269.96875 256.320312 L 223.375 302.867188 C 222.03125 304.207031 219.851562 304.207031 218.503906 302.867188 L 185.25 269.648438 C 183.90625 268.304688 183.90625 266.128906 185.25 264.785156 C 186.59375 263.441406 188.773438 263.441406 190.117188 264.785156 L 220.941406 295.570312 L 262.667969 253.890625 L 218.503906 209.777344 C 217.160156 208.433594 217.160156 206.257812 218.503906 204.910156 C 219.179688 204.242188 220.058594 203.902344 220.941406 203.902344 " fill-opacity="1" fill-rule="nonzero"/><path fill="#a2caff" d="M 220.953125 230.546875 C 221.832031 230.546875 222.714844 230.882812 223.386719 231.554688 C 224.730469 232.898438 224.730469 235.074219 223.386719 236.417969 L 190.132812 269.632812 C 188.789062 270.972656 186.609375 270.972656 185.265625 269.632812 C 183.921875 268.289062 183.921875 266.113281 185.265625 264.769531 L 218.519531 231.550781 C 219.191406 230.882812 220.070312 230.546875 220.953125 230.546875 Z M 202.742188 220.65625 L 187.699219 205.628906 L 172.65625 220.65625 L 187.699219 235.683594 Z M 187.699219 197.328125 C 188.582031 197.328125 189.460938 197.664062 190.132812 198.332031 L 210.046875 218.226562 C 211.390625 219.566406 211.390625 221.746094 210.046875 223.085938 L 190.132812 242.980469 C 188.84375 244.269531 186.558594 244.269531 185.265625 242.980469 L 165.351562 223.085938 C 164.011719 221.746094 164.011719 219.566406 165.351562 218.226562 L 185.265625 198.332031 C 185.9375 197.664062 186.820312 197.328125 187.699219 197.328125 " fill-opacity="1" fill-rule="nonzero"/><path fill="#a2caff" d="M 121.117188 197.285156 C 122.003906 197.285156 122.882812 197.621094 123.554688 198.292969 L 156.867188 231.566406 C 158.214844 232.914062 158.214844 235.089844 156.867188 236.433594 C 155.523438 237.773438 153.347656 237.777344 152 236.433594 L 118.6875 203.15625 C 117.34375 201.8125 117.34375 199.632812 118.6875 198.292969 C 119.359375 197.621094 120.238281 197.285156 121.117188 197.285156 Z M 169.476562 187.457031 L 154.433594 172.425781 L 139.390625 187.457031 L 154.433594 202.484375 Z M 154.433594 164.125 C 155.316406 164.125 156.195312 164.460938 156.867188 165.132812 L 176.78125 185.023438 C 178.125 186.367188 178.125 188.542969 176.78125 189.886719 L 156.867188 209.777344 C 155.578125 211.066406 153.289062 211.066406 152 209.78125 L 132.085938 189.886719 C 131.441406 189.242188 131.078125 188.367188 131.078125 187.457031 C 131.078125 186.542969 131.441406 185.667969 132.085938 185.023438 L 152 165.132812 C 152.671875 164.460938 153.550781 164.125 154.433594 164.125 Z M 141.117188 150.769531 C 142 150.769531 142.878906 151.105469 143.550781 151.777344 C 144.898438 153.121094 144.898438 155.300781 143.550781 156.640625 L 110.269531 189.886719 C 108.925781 191.230469 106.746094 191.230469 105.402344 189.886719 C 104.058594 188.542969 104.058594 186.363281 105.402344 185.023438 L 138.683594 151.777344 C 139.355469 151.105469 140.234375 150.769531 141.117188 150.769531 Z M 154.433594 137.46875 C 155.316406 137.46875 156.195312 137.808594 156.867188 138.476562 L 190.132812 171.710938 C 191.480469 173.050781 191.480469 175.230469 190.132812 176.574219 C 188.789062 177.914062 186.609375 177.917969 185.265625 176.570312 L 152 143.339844 C 150.65625 142 150.65625 139.824219 152 138.476562 C 152.671875 137.808594 153.550781 137.46875 154.433594 137.46875 " fill-opacity="1" fill-rule="nonzero"/><path fill="#a2caff" d="M 169.429688 253.816406 L 154.386719 238.789062 L 139.34375 253.816406 L 154.386719 268.839844 Z M 154.386719 230.484375 C 155.300781 230.484375 156.175781 230.847656 156.820312 231.492188 L 176.734375 251.382812 C 178.078125 252.726562 178.078125 254.902344 176.734375 256.246094 L 156.820312 276.136719 C 155.53125 277.429688 153.246094 277.429688 151.953125 276.136719 L 132.039062 256.246094 C 130.699219 254.902344 130.699219 252.726562 132.039062 251.382812 L 151.953125 231.492188 C 152.597656 230.847656 153.472656 230.484375 154.386719 230.484375 Z M 141.046875 217.160156 C 141.925781 217.160156 142.808594 217.496094 143.480469 218.167969 C 144.824219 219.507812 144.824219 221.683594 143.480469 223.03125 L 112.660156 253.816406 L 154.386719 295.496094 L 198.550781 251.382812 C 199.894531 250.039062 202.074219 250.039062 203.417969 251.382812 C 204.761719 252.726562 204.761719 254.902344 203.417969 256.246094 L 156.820312 302.792969 C 155.53125 304.082031 153.246094 304.082031 151.953125 302.792969 L 105.359375 256.246094 C 104.710938 255.601562 104.347656 254.726562 104.347656 253.816406 C 104.347656 252.902344 104.710938 252.027344 105.359375 251.382812 L 138.613281 218.167969 C 139.285156 217.496094 140.164062 217.160156 141.046875 217.160156 Z M 154.386719 203.832031 C 155.269531 203.832031 156.148438 204.167969 156.820312 204.839844 L 190.136719 238.117188 C 191.480469 239.457031 191.480469 241.636719 190.136719 242.980469 C 188.789062 244.320312 186.613281 244.320312 185.265625 242.980469 L 151.953125 209.703125 C 150.609375 208.359375 150.609375 206.183594 151.953125 204.839844 C 152.625 204.167969 153.507812 203.832031 154.386719 203.832031 " fill-opacity="1" fill-rule="nonzero"/><g clip-path="url(#f535c4e39c)"><path fill="#a2caff" d="M 102.925781 187.378906 L 87.882812 172.351562 L 72.839844 187.378906 L 87.882812 202.40625 Z M 87.882812 164.050781 C 88.761719 164.050781 89.644531 164.386719 90.316406 165.058594 L 110.230469 184.949219 C 110.875 185.59375 111.238281 186.46875 111.238281 187.378906 C 111.238281 188.292969 110.875 189.164062 110.230469 189.808594 L 90.316406 209.703125 C 88.96875 211.042969 86.792969 211.042969 85.449219 209.703125 L 65.535156 189.808594 C 64.191406 188.46875 64.191406 186.292969 65.535156 184.949219 L 85.449219 165.058594 C 86.117188 164.386719 87 164.050781 87.882812 164.050781 Z M 87.882812 137.394531 C 88.761719 137.394531 89.644531 137.730469 90.316406 138.402344 L 123.628906 171.679688 C 124.972656 173.023438 124.972656 175.199219 123.628906 176.542969 C 122.285156 177.886719 120.105469 177.886719 118.761719 176.542969 L 87.882812 145.699219 L 46.152344 187.378906 L 87.882812 229.058594 L 134.71875 182.273438 C 136.066406 180.933594 138.242188 180.933594 139.585938 182.277344 C 140.933594 183.617188 140.933594 185.796875 139.585938 187.140625 L 90.316406 236.359375 C 89.667969 237 88.796875 237.363281 87.882812 237.363281 C 86.96875 237.363281 86.09375 237 85.449219 236.359375 L 38.851562 189.808594 C 37.507812 188.46875 37.507812 186.292969 38.851562 184.949219 L 85.449219 138.402344 C 86.117188 137.730469 87 137.394531 87.882812 137.394531 " fill-opacity="1" fill-rule="nonzero"/></g></svg>