<svg xmlns="http://www.w3.org/2000/svg" xmlns:xlink="http://www.w3.org/1999/xlink" width="570" zoomAndPan="magnify" viewBox="0 0 427.5 223.499994" height="298" preserveAspectRatio="xMidYMid meet" version="1.0"><defs><g/><clipPath id="a9ebd62bd0"><path d="M 131 96 L 168.960938 96 L 168.960938 128 L 131 128 Z M 131 96 " clip-rule="nonzero"/></clipPath><clipPath id="eefc0f6dbd"><path d="M 116 75.433594 L 149 75.433594 L 149 107 L 116 107 Z M 116 75.433594 " clip-rule="nonzero"/></clipPath><clipPath id="df4c2763ac"><path d="M 96 75.433594 L 128 75.433594 L 128 107 L 96 107 Z M 96 75.433594 " clip-rule="nonzero"/></clipPath><clipPath id="43365fcb30"><path d="M 75.3125 96 L 108 96 L 108 128 L 75.3125 128 Z M 75.3125 96 " clip-rule="nonzero"/></clipPath></defs><g clip-path="url(#a9ebd62bd0)"><path fill="#a2caff" d="M 158.035156 111.714844 L 153.339844 107.035156 L 148.644531 111.714844 L 153.339844 116.398438 Z M 153.339844 96.140625 C 153.613281 96.140625 153.890625 96.246094 154.101562 96.457031 L 168.644531 110.957031 C 168.847656 111.160156 168.960938 111.433594 168.960938 111.714844 C 168.960938 112 168.847656 112.273438 168.644531 112.472656 L 154.101562 126.976562 C 153.679688 127.394531 153 127.394531 152.578125 126.976562 L 142.957031 117.386719 L 142.847656 117.496094 C 142.425781 117.914062 141.746094 117.914062 141.328125 117.496094 C 140.90625 117.078125 140.90625 116.398438 141.328125 115.980469 L 152.578125 104.761719 C 153 104.34375 153.679688 104.34375 154.101562 104.761719 L 160.316406 110.957031 C 160.515625 111.160156 160.628906 111.433594 160.628906 111.714844 C 160.628906 112 160.515625 112.273438 160.316406 112.472656 L 154.101562 118.671875 C 153.679688 119.089844 153 119.089844 152.578125 118.671875 L 147.125 113.230469 L 144.476562 115.871094 L 153.339844 124.703125 L 166.367188 111.714844 L 153.339844 98.730469 L 133.339844 118.667969 C 132.921875 119.085938 132.242188 119.085938 131.820312 118.667969 C 131.402344 118.25 131.402344 117.570312 131.820312 117.152344 L 152.578125 96.457031 C 152.789062 96.246094 153.066406 96.140625 153.339844 96.140625 " fill-opacity="1" fill-rule="nonzero"/></g><g clip-path="url(#eefc0f6dbd)"><path fill="#a2caff" d="M 122.203125 94.097656 C 122.476562 94.097656 122.753906 94.199219 122.960938 94.410156 L 133.34375 104.757812 C 133.761719 105.175781 133.761719 105.855469 133.34375 106.273438 C 132.921875 106.691406 132.242188 106.691406 131.820312 106.273438 L 121.441406 95.925781 C 121.023438 95.507812 121.023438 94.828125 121.441406 94.410156 C 121.652344 94.199219 121.925781 94.097656 122.203125 94.097656 Z M 137.277344 91.011719 L 132.582031 86.332031 L 127.886719 91.011719 L 132.582031 95.695312 Z M 132.582031 83.746094 C 132.867188 83.746094 133.140625 83.855469 133.34375 84.058594 L 139.558594 90.257812 C 139.976562 90.675781 139.976562 91.351562 139.558594 91.773438 L 133.34375 97.96875 C 132.9375 98.371094 132.226562 98.371094 131.820312 97.96875 L 125.605469 91.773438 C 125.1875 91.351562 125.1875 90.675781 125.605469 90.257812 L 131.820312 84.058594 C 132.023438 83.855469 132.296875 83.746094 132.582031 83.746094 Z M 132.582031 75.4375 C 132.867188 75.4375 133.140625 75.550781 133.34375 75.753906 L 147.886719 90.257812 C 148.308594 90.675781 148.308594 91.351562 147.886719 91.773438 L 137.511719 102.117188 C 137.09375 102.535156 136.414062 102.535156 135.992188 102.117188 C 135.574219 101.699219 135.574219 101.023438 135.992188 100.601562 L 145.609375 91.011719 L 132.582031 78.027344 L 118.796875 91.773438 C 118.375 92.191406 117.695312 92.191406 117.277344 91.773438 C 116.855469 91.351562 116.855469 90.675781 117.277344 90.257812 L 131.820312 75.753906 C 132.023438 75.550781 132.296875 75.4375 132.582031 75.4375 " fill-opacity="1" fill-rule="nonzero"/></g><path fill="#a2caff" d="M 122.199219 114.792969 C 122.472656 114.792969 122.75 114.898438 122.957031 115.105469 L 133.34375 125.460938 C 133.761719 125.878906 133.761719 126.558594 133.34375 126.976562 C 132.921875 127.394531 132.242188 127.394531 131.824219 126.976562 L 121.4375 116.621094 C 121.019531 116.203125 121.019531 115.523438 121.4375 115.105469 C 121.648438 114.898438 121.921875 114.792969 122.199219 114.792969 Z M 147.128906 110.644531 C 147.40625 110.644531 147.679688 110.75 147.890625 110.957031 C 148.308594 111.375 148.308594 112.054688 147.890625 112.472656 L 137.503906 122.828125 C 137.085938 123.246094 136.40625 123.246094 135.984375 122.828125 C 135.566406 122.410156 135.566406 121.730469 135.984375 121.3125 L 146.371094 110.957031 C 146.578125 110.75 146.855469 110.644531 147.128906 110.644531 Z M 137.28125 111.714844 L 132.582031 107.035156 L 127.886719 111.714844 L 132.582031 116.398438 Z M 132.582031 104.445312 C 132.859375 104.445312 133.132812 104.550781 133.34375 104.761719 L 139.558594 110.957031 C 139.761719 111.160156 139.875 111.429688 139.875 111.714844 C 139.875 112 139.761719 112.273438 139.558594 112.472656 L 133.34375 118.671875 C 132.921875 119.089844 132.242188 119.089844 131.824219 118.671875 L 125.609375 112.472656 C 125.1875 112.054688 125.1875 111.375 125.609375 110.957031 L 131.824219 104.761719 C 132.03125 104.550781 132.308594 104.445312 132.582031 104.445312 Z M 128.421875 100.289062 C 128.699219 100.289062 128.972656 100.394531 129.183594 100.601562 C 129.601562 101.023438 129.601562 101.699219 129.183594 102.121094 L 118.796875 112.472656 C 118.378906 112.890625 117.699219 112.890625 117.277344 112.472656 C 116.859375 112.054688 116.859375 111.375 117.277344 110.957031 L 127.664062 100.601562 C 127.875 100.394531 128.148438 100.289062 128.421875 100.289062 Z M 132.582031 96.140625 C 132.859375 96.140625 133.132812 96.246094 133.34375 96.457031 L 143.71875 106.800781 C 144.140625 107.21875 144.140625 107.898438 143.71875 108.316406 C 143.300781 108.734375 142.621094 108.734375 142.199219 108.316406 L 131.824219 97.96875 C 131.402344 97.550781 131.402344 96.875 131.824219 96.457031 C 132.03125 96.246094 132.308594 96.140625 132.582031 96.140625 " fill-opacity="1" fill-rule="nonzero"/><path fill="#a2caff" d="M 132.582031 104.445312 C 132.859375 104.445312 133.132812 104.550781 133.34375 104.757812 C 133.761719 105.179688 133.761719 105.855469 133.34375 106.273438 L 122.964844 116.621094 C 122.546875 117.039062 121.867188 117.039062 121.445312 116.621094 C 121.027344 116.203125 121.027344 115.523438 121.445312 115.105469 L 131.824219 104.757812 C 132.03125 104.550781 132.308594 104.445312 132.582031 104.445312 Z M 126.902344 101.359375 L 122.207031 96.679688 L 117.511719 101.359375 L 122.207031 106.042969 Z M 122.207031 94.09375 C 122.480469 94.09375 122.757812 94.195312 122.964844 94.40625 L 129.183594 100.601562 C 129.382812 100.804688 129.496094 101.074219 129.496094 101.359375 C 129.496094 101.644531 129.382812 101.917969 129.183594 102.117188 L 122.964844 108.316406 C 122.765625 108.515625 122.492188 108.628906 122.207031 108.628906 C 121.921875 108.628906 121.648438 108.515625 121.445312 108.316406 L 115.230469 102.117188 C 114.8125 101.699219 114.8125 101.019531 115.230469 100.601562 L 121.445312 94.40625 C 121.65625 94.195312 121.933594 94.09375 122.207031 94.09375 Z M 126.371094 89.9375 C 126.644531 89.9375 126.921875 90.042969 127.128906 90.25 L 133.859375 96.960938 C 134.28125 97.378906 134.28125 98.058594 133.859375 98.476562 C 133.441406 98.894531 132.761719 98.894531 132.339844 98.476562 L 125.609375 91.769531 C 125.191406 91.347656 125.191406 90.671875 125.609375 90.25 C 125.820312 90.042969 126.09375 89.9375 126.371094 89.9375 Z M 122.207031 85.785156 C 122.480469 85.785156 122.757812 85.890625 122.964844 86.101562 C 123.386719 86.519531 123.386719 87.195312 122.964844 87.617188 L 112.765625 97.785156 C 112.347656 98.203125 111.664062 98.203125 111.246094 97.785156 C 110.824219 97.367188 110.824219 96.691406 111.246094 96.269531 L 121.445312 86.101562 C 121.65625 85.890625 121.933594 85.785156 122.207031 85.785156 " fill-opacity="1" fill-rule="nonzero"/><g clip-path="url(#df4c2763ac)"><path fill="#a2caff" d="M 116.519531 91.015625 L 111.820312 86.332031 L 107.125 91.015625 L 111.820312 95.699219 Z M 111.820312 83.746094 C 112.097656 83.746094 112.371094 83.851562 112.582031 84.0625 L 118.796875 90.257812 C 119.21875 90.675781 119.21875 91.355469 118.796875 91.773438 L 113.34375 97.214844 L 115.988281 99.851562 L 125.609375 90.257812 C 126.027344 89.839844 126.707031 89.839844 127.128906 90.257812 C 127.546875 90.675781 127.546875 91.355469 127.128906 91.773438 L 116.75 102.121094 C 116.699219 102.171875 116.640625 102.21875 116.578125 102.257812 C 116.160156 102.535156 115.59375 102.488281 115.226562 102.121094 L 104.84375 91.773438 C 104.644531 91.570312 104.53125 91.300781 104.53125 91.015625 C 104.53125 90.730469 104.644531 90.457031 104.84375 90.257812 L 111.0625 84.058594 C 111.273438 83.851562 111.546875 83.746094 111.820312 83.746094 Z M 111.820312 75.441406 C 112.097656 75.441406 112.371094 75.546875 112.582031 75.753906 L 122.960938 86.105469 C 123.382812 86.523438 123.382812 87.203125 122.960938 87.621094 C 122.542969 88.039062 121.863281 88.039062 121.441406 87.621094 L 111.820312 78.027344 L 98.796875 91.015625 L 112.582031 104.761719 C 113 105.179688 113 105.859375 112.582031 106.277344 C 112.164062 106.695312 111.484375 106.695312 111.0625 106.277344 L 96.515625 91.773438 C 96.3125 91.570312 96.203125 91.300781 96.203125 91.015625 C 96.203125 90.730469 96.3125 90.457031 96.515625 90.257812 L 111.0625 75.753906 C 111.273438 75.546875 111.546875 75.441406 111.820312 75.441406 " fill-opacity="1" fill-rule="nonzero"/></g><path fill="#a2caff" d="M 122.199219 127.1875 C 122.472656 127.1875 122.75 127.289062 122.957031 127.5 C 123.378906 127.917969 123.378906 128.597656 122.957031 129.015625 L 118.789062 133.171875 C 118.371094 133.589844 117.6875 133.589844 117.269531 133.171875 C 116.847656 132.753906 116.847656 132.074219 117.269531 131.65625 L 121.4375 127.5 C 121.648438 127.289062 121.921875 127.1875 122.199219 127.1875 Z M 137.269531 132.414062 L 132.574219 127.734375 L 127.878906 132.414062 L 132.574219 137.097656 Z M 132.574219 125.144531 C 132.859375 125.144531 133.132812 125.257812 133.335938 125.460938 L 139.550781 131.65625 C 139.96875 132.074219 139.96875 132.753906 139.550781 133.171875 L 133.335938 139.371094 C 132.929688 139.773438 132.21875 139.773438 131.816406 139.371094 L 125.597656 133.171875 C 125.179688 132.753906 125.179688 132.074219 125.597656 131.65625 L 131.816406 125.460938 C 132.015625 125.257812 132.289062 125.144531 132.574219 125.144531 Z M 132.574219 116.839844 C 132.851562 116.839844 133.125 116.945312 133.335938 117.152344 L 147.878906 131.65625 C 148.082031 131.859375 148.195312 132.128906 148.195312 132.414062 C 148.195312 132.699219 148.082031 132.972656 147.878906 133.171875 L 133.335938 147.675781 C 132.914062 148.09375 132.234375 148.09375 131.816406 147.675781 L 121.433594 137.324219 C 121.011719 136.90625 121.011719 136.226562 121.433594 135.808594 C 121.851562 135.390625 122.535156 135.390625 122.953125 135.808594 L 132.574219 145.402344 L 145.601562 132.414062 L 131.816406 118.671875 C 131.394531 118.25 131.394531 117.574219 131.816406 117.152344 C 132.023438 116.945312 132.300781 116.839844 132.574219 116.839844 " fill-opacity="1" fill-rule="nonzero"/><path fill="#a2caff" d="M 132.578125 125.140625 C 132.851562 125.140625 133.128906 125.246094 133.339844 125.457031 C 133.757812 125.875 133.757812 126.550781 133.339844 126.96875 L 122.957031 137.320312 C 122.539062 137.738281 121.859375 137.738281 121.4375 137.320312 C 121.019531 136.902344 121.019531 136.222656 121.4375 135.804688 L 131.820312 125.453125 C 132.027344 125.246094 132.304688 125.140625 132.578125 125.140625 Z M 126.894531 122.058594 L 122.199219 117.378906 L 117.503906 122.058594 L 122.199219 126.742188 Z M 122.199219 114.792969 C 122.472656 114.792969 122.75 114.894531 122.957031 115.105469 L 129.171875 121.300781 C 129.59375 121.71875 129.59375 122.398438 129.171875 122.816406 L 122.957031 129.015625 C 122.554688 129.417969 121.839844 129.417969 121.4375 129.015625 L 115.222656 122.816406 C 114.804688 122.398438 114.804688 121.71875 115.222656 121.300781 L 121.4375 115.105469 C 121.648438 114.894531 121.921875 114.792969 122.199219 114.792969 " fill-opacity="1" fill-rule="nonzero"/><path fill="#a2caff" d="M 101.414062 114.777344 C 101.691406 114.777344 101.964844 114.882812 102.175781 115.089844 L 112.574219 125.460938 C 112.992188 125.878906 112.992188 126.554688 112.574219 126.976562 C 112.152344 127.394531 111.472656 127.394531 111.054688 126.976562 L 100.652344 116.605469 C 100.234375 116.1875 100.234375 115.511719 100.652344 115.089844 C 100.863281 114.882812 101.140625 114.777344 101.414062 114.777344 Z M 116.507812 111.714844 L 111.8125 107.03125 L 107.117188 111.714844 L 111.8125 116.398438 Z M 111.8125 104.445312 C 112.089844 104.445312 112.363281 104.550781 112.574219 104.757812 L 118.789062 110.957031 C 119.210938 111.375 119.210938 112.054688 118.789062 112.472656 L 112.574219 118.671875 C 112.171875 119.074219 111.457031 119.074219 111.054688 118.671875 L 104.835938 112.472656 C 104.636719 112.273438 104.523438 112 104.523438 111.714844 C 104.523438 111.429688 104.636719 111.15625 104.835938 110.957031 L 111.054688 104.757812 C 111.261719 104.550781 111.539062 104.445312 111.8125 104.445312 Z M 107.65625 100.285156 C 107.933594 100.285156 108.207031 100.390625 108.417969 100.597656 C 108.835938 101.015625 108.835938 101.695312 108.417969 102.113281 L 98.027344 112.472656 C 97.609375 112.890625 96.925781 112.890625 96.507812 112.472656 C 96.089844 112.054688 96.089844 111.375 96.507812 110.957031 L 106.898438 100.597656 C 107.105469 100.390625 107.382812 100.285156 107.65625 100.285156 Z M 111.8125 96.140625 C 112.089844 96.140625 112.363281 96.246094 112.574219 96.453125 L 122.957031 106.808594 C 123.378906 107.226562 123.378906 107.90625 122.957031 108.324219 C 122.539062 108.742188 121.859375 108.742188 121.4375 108.324219 L 111.054688 97.96875 C 110.632812 97.550781 110.632812 96.875 111.054688 96.453125 C 111.261719 96.246094 111.539062 96.140625 111.8125 96.140625 " fill-opacity="1" fill-rule="nonzero"/><path fill="#a2caff" d="M 116.496094 132.390625 L 111.800781 127.710938 L 107.101562 132.390625 L 111.800781 137.074219 Z M 111.800781 125.121094 C 112.085938 125.121094 112.359375 125.234375 112.558594 125.4375 L 118.773438 131.632812 C 119.195312 132.050781 119.195312 132.730469 118.773438 133.148438 L 112.558594 139.347656 C 112.15625 139.75 111.441406 139.75 111.039062 139.347656 L 104.824219 133.148438 C 104.402344 132.730469 104.402344 132.050781 104.824219 131.632812 L 111.039062 125.4375 C 111.242188 125.234375 111.515625 125.121094 111.800781 125.121094 Z M 107.632812 120.96875 C 107.910156 120.96875 108.183594 121.074219 108.394531 121.285156 C 108.8125 121.703125 108.8125 122.378906 108.394531 122.800781 L 98.773438 132.390625 L 111.800781 145.378906 L 125.585938 131.632812 C 126.003906 131.214844 126.683594 131.214844 127.105469 131.632812 C 127.523438 132.050781 127.523438 132.730469 127.105469 133.148438 L 112.558594 147.652344 C 112.15625 148.054688 111.441406 148.054688 111.039062 147.652344 L 96.492188 133.148438 C 96.292969 132.949219 96.179688 132.675781 96.179688 132.390625 C 96.179688 132.105469 96.292969 131.835938 96.492188 131.632812 L 106.875 121.285156 C 107.085938 121.074219 107.359375 120.96875 107.632812 120.96875 Z M 111.800781 116.816406 C 112.074219 116.816406 112.347656 116.921875 112.558594 117.132812 L 122.957031 127.5 C 123.378906 127.917969 123.378906 128.597656 122.957031 129.015625 C 122.539062 129.433594 121.859375 129.433594 121.4375 129.015625 L 111.039062 118.648438 C 110.621094 118.226562 110.621094 117.550781 111.039062 117.132812 C 111.25 116.921875 111.523438 116.816406 111.800781 116.816406 " fill-opacity="1" fill-rule="nonzero"/><g clip-path="url(#43365fcb30)"><path fill="#a2caff" d="M 95.734375 111.691406 L 91.039062 107.007812 L 86.34375 111.691406 L 91.039062 116.375 Z M 91.039062 104.421875 C 91.3125 104.421875 91.589844 104.527344 91.796875 104.734375 L 98.015625 110.933594 C 98.214844 111.136719 98.328125 111.40625 98.328125 111.691406 C 98.328125 111.976562 98.214844 112.246094 98.015625 112.449219 L 91.796875 118.644531 C 91.378906 119.066406 90.699219 119.066406 90.277344 118.644531 L 84.0625 112.449219 C 83.644531 112.03125 83.644531 111.351562 84.0625 110.933594 L 90.277344 104.734375 C 90.488281 104.527344 90.761719 104.421875 91.039062 104.421875 Z M 91.039062 96.117188 C 91.3125 96.117188 91.589844 96.222656 91.796875 96.429688 L 102.199219 106.800781 C 102.617188 107.21875 102.617188 107.894531 102.199219 108.316406 C 101.777344 108.734375 101.097656 108.734375 100.679688 108.316406 L 91.039062 98.703125 L 78.011719 111.691406 L 91.039062 124.679688 L 105.660156 110.101562 C 106.078125 109.683594 106.757812 109.683594 107.179688 110.101562 C 107.597656 110.519531 107.597656 111.199219 107.179688 111.617188 L 91.796875 126.953125 C 91.597656 127.152344 91.324219 127.265625 91.039062 127.265625 C 90.753906 127.265625 90.480469 127.152344 90.277344 126.953125 L 75.734375 112.449219 C 75.3125 112.03125 75.3125 111.351562 75.734375 110.933594 L 90.277344 96.429688 C 90.488281 96.222656 90.761719 96.117188 91.039062 96.117188 " fill-opacity="1" fill-rule="nonzero"/></g><g fill="#ffffff" fill-opacity="1"><g transform="translate(181.869738, 126.584617)"><g><path d="M 15.421875 0.515625 C 12.722656 0.515625 10.28125 -0.0351562 8.09375 -1.140625 C 5.90625 -2.253906 4.171875 -3.90625 2.890625 -6.09375 C 1.609375 -8.28125 0.96875 -11.015625 0.96875 -14.296875 C 1.007812 -17.503906 1.660156 -20.234375 2.921875 -22.484375 C 4.179688 -24.742188 5.90625 -26.453125 8.09375 -27.609375 C 10.28125 -28.773438 12.773438 -29.359375 15.578125 -29.359375 C 18.242188 -29.359375 20.515625 -28.878906 22.390625 -27.921875 C 24.265625 -26.960938 25.773438 -25.660156 26.921875 -24.015625 C 28.066406 -22.378906 28.8125 -20.539062 29.15625 -18.5 L 23.765625 -18.5 C 23.535156 -20 22.984375 -21.179688 22.109375 -22.046875 C 21.234375 -22.921875 20.210938 -23.535156 19.046875 -23.890625 C 17.890625 -24.253906 16.734375 -24.4375 15.578125 -24.4375 C 12.535156 -24.4375 10.203125 -23.582031 8.578125 -21.875 C 6.953125 -20.164062 6.140625 -17.757812 6.140625 -14.65625 C 6.140625 -11.34375 6.929688 -8.796875 8.515625 -7.015625 C 10.109375 -5.242188 12.425781 -4.359375 15.46875 -4.359375 C 16.738281 -4.359375 17.96875 -4.550781 19.15625 -4.9375 C 20.351562 -5.332031 21.378906 -5.984375 22.234375 -6.890625 C 23.085938 -7.796875 23.632812 -9.015625 23.875 -10.546875 L 29.3125 -10.546875 C 28.9375 -8.429688 28.175781 -6.546875 27.03125 -4.890625 C 25.882812 -3.234375 24.34375 -1.914062 22.40625 -0.9375 C 20.476562 0.03125 18.148438 0.515625 15.421875 0.515625 Z M 15.421875 0.515625 "/></g></g></g><g fill="#ffffff" fill-opacity="1"><g transform="translate(212.711067, 126.584617)"><g><path d="M 2.15625 0 L 2.15625 -21.0625 L 7.015625 -21.0625 L 7.375 -15.21875 C 7.582031 -16.101562 7.984375 -17 8.578125 -17.90625 C 9.179688 -18.8125 10.019531 -19.5625 11.09375 -20.15625 C 12.164062 -20.757812 13.554688 -21.0625 15.265625 -21.0625 L 16.03125 -21.0625 L 16.03125 -15.21875 L 15.265625 -15.21875 C 12.328125 -15.21875 10.273438 -14.75 9.109375 -13.8125 C 7.953125 -12.875 7.375 -11.289062 7.375 -9.0625 L 7.375 0 Z M 2.15625 0 "/></g></g></g><g fill="#ffffff" fill-opacity="1"><g transform="translate(230.027287, 126.584617)"><g><path d="M -0.109375 9.78125 L -0.109375 5.734375 L 3.125 5.734375 C 3.632812 5.734375 4.078125 5.679688 4.453125 5.578125 C 4.828125 5.484375 5.203125 5.222656 5.578125 4.796875 C 5.953125 4.367188 6.378906 3.675781 6.859375 2.71875 L 8.25 -0.359375 L 0.046875 -21.0625 L 5.4375 -21.0625 L 10.8125 -5.734375 L 16.59375 -21.0625 L 21.984375 -21.0625 L 11.625 3.234375 C 10.8125 5.140625 10.0625 6.5625 9.375 7.5 C 8.6875 8.445312 7.925781 9.0625 7.09375 9.34375 C 6.257812 9.632812 5.191406 9.78125 3.890625 9.78125 Z M -0.109375 9.78125 "/></g></g></g><g fill="#ffffff" fill-opacity="1"><g transform="translate(252.620354, 126.584617)"><g><path d="M 14.953125 0.515625 C 13.660156 0.515625 12.578125 0.316406 11.703125 -0.078125 C 10.835938 -0.472656 10.140625 -0.941406 9.609375 -1.484375 C 9.078125 -2.035156 8.679688 -2.53125 8.421875 -2.96875 C 8.171875 -3.414062 8.03125 -3.671875 8 -3.734375 L 7.890625 -3.734375 L 7.890625 9.375 L 2.515625 9.375 L 2.515625 -21.0625 L 7.078125 -21.0625 L 7.9375 -16.453125 L 8.046875 -16.453125 C 8.078125 -16.546875 8.203125 -16.832031 8.421875 -17.3125 C 8.648438 -17.789062 9.007812 -18.320312 9.5 -18.90625 C 10 -19.488281 10.691406 -19.992188 11.578125 -20.421875 C 12.460938 -20.847656 13.570312 -21.0625 14.90625 -21.0625 C 18.050781 -21.0625 20.304688 -20.050781 21.671875 -18.03125 C 23.035156 -16.019531 23.71875 -13.390625 23.71875 -10.140625 C 23.71875 -6.898438 23.015625 -4.3125 21.609375 -2.375 C 20.210938 -0.445312 17.992188 0.515625 14.953125 0.515625 Z M 13.375 -3.890625 C 14.8125 -3.890625 15.910156 -4.1875 16.671875 -4.78125 C 17.441406 -5.382812 17.972656 -6.171875 18.265625 -7.140625 C 18.554688 -8.117188 18.703125 -9.140625 18.703125 -10.203125 C 18.703125 -11.253906 18.539062 -12.25 18.21875 -13.1875 C 17.894531 -14.132812 17.335938 -14.90625 16.546875 -15.5 C 15.765625 -16.09375 14.671875 -16.390625 13.265625 -16.390625 C 11.359375 -16.390625 9.992188 -15.800781 9.171875 -14.625 C 8.347656 -13.445312 7.9375 -11.972656 7.9375 -10.203125 C 7.9375 -8.347656 8.363281 -6.832031 9.21875 -5.65625 C 10.070312 -4.476562 11.457031 -3.890625 13.375 -3.890625 Z M 13.375 -3.890625 "/></g></g></g><g fill="#ffffff" fill-opacity="1"><g transform="translate(277.826221, 126.584617)"><g><path d="M 8.8125 0 C 7.132812 0 5.878906 -0.40625 5.046875 -1.21875 C 4.210938 -2.039062 3.796875 -3.375 3.796875 -5.21875 L 3.796875 -17.375 L 0.609375 -17.375 L 0.609375 -21.0625 C 1.597656 -21.0625 2.363281 -21.160156 2.90625 -21.359375 C 3.457031 -21.566406 3.851562 -22.046875 4.09375 -22.796875 C 4.332031 -23.546875 4.453125 -24.757812 4.453125 -26.4375 L 8.65625 -26.4375 L 8.65625 -21.0625 L 13.46875 -21.0625 L 13.46875 -17.375 L 8.65625 -17.375 L 8.65625 -4.09375 L 13.578125 -4.09375 L 13.578125 0 Z M 8.8125 0 "/></g></g></g><g fill="#ffffff" fill-opacity="1"><g transform="translate(293.451802, 126.584617)"><g><path d="M 5.375 -23.359375 C 4.25 -23.328125 3.503906 -23.59375 3.140625 -24.15625 C 2.785156 -24.71875 2.609375 -25.394531 2.609375 -26.1875 C 2.609375 -26.9375 2.796875 -27.582031 3.171875 -28.125 C 3.546875 -28.675781 4.28125 -28.953125 5.375 -28.953125 C 6.4375 -28.953125 7.144531 -28.675781 7.5 -28.125 C 7.863281 -27.582031 8.046875 -26.9375 8.046875 -26.1875 C 8.046875 -25.394531 7.863281 -24.734375 7.5 -24.203125 C 7.144531 -23.679688 6.4375 -23.398438 5.375 -23.359375 Z M 2.71875 0 L 2.71875 -21.0625 L 7.9375 -21.0625 L 7.9375 0 Z M 2.71875 0 "/></g></g></g><g fill="#ffffff" fill-opacity="1"><g transform="translate(304.056714, 126.584617)"><g><path d="M 12.046875 0.515625 C 10.054688 0.515625 8.257812 0.113281 6.65625 -0.6875 C 5.050781 -1.488281 3.769531 -2.679688 2.8125 -4.265625 C 1.863281 -5.859375 1.390625 -7.800781 1.390625 -10.09375 C 1.453125 -12.382812 1.953125 -14.347656 2.890625 -15.984375 C 3.828125 -17.617188 5.085938 -18.878906 6.671875 -19.765625 C 8.265625 -20.660156 10.085938 -21.109375 12.140625 -21.109375 C 14.222656 -21.109375 16.003906 -20.707031 17.484375 -19.90625 C 18.972656 -19.101562 20.128906 -18.0625 20.953125 -16.78125 C 21.773438 -15.5 22.238281 -14.175781 22.34375 -12.8125 L 17.515625 -12.8125 C 17.003906 -15.332031 15.265625 -16.59375 12.296875 -16.59375 C 10.453125 -16.59375 9.023438 -16.03125 8.015625 -14.90625 C 7.003906 -13.78125 6.5 -12.3125 6.5 -10.5 C 6.5 -8.519531 6.984375 -6.941406 7.953125 -5.765625 C 8.929688 -4.585938 10.378906 -4 12.296875 -4 C 13.597656 -4 14.734375 -4.335938 15.703125 -5.015625 C 16.671875 -5.703125 17.273438 -6.710938 17.515625 -8.046875 L 22.34375 -8.046875 C 22.238281 -6.578125 21.765625 -5.191406 20.921875 -3.890625 C 20.085938 -2.597656 18.925781 -1.539062 17.4375 -0.71875 C 15.957031 0.101562 14.160156 0.515625 12.046875 0.515625 Z M 12.046875 0.515625 "/></g></g></g><g fill="#ffffff" fill-opacity="1"><g transform="translate(328.084256, 126.584617)"><g><path d="M 11.828125 0.515625 C 9.441406 0.515625 7.460938 0.0546875 5.890625 -0.859375 C 4.316406 -1.785156 3.132812 -3.0625 2.34375 -4.6875 C 1.5625 -6.3125 1.171875 -8.164062 1.171875 -10.25 C 1.140625 -13.382812 2.019531 -15.96875 3.8125 -18 C 5.601562 -20.039062 8.273438 -21.0625 11.828125 -21.0625 C 15.285156 -21.0625 17.910156 -20.066406 19.703125 -18.078125 C 21.492188 -16.097656 22.390625 -13.488281 22.390625 -10.25 C 22.390625 -8.226562 22.015625 -6.398438 21.265625 -4.765625 C 20.515625 -3.128906 19.351562 -1.835938 17.78125 -0.890625 C 16.207031 0.046875 14.222656 0.515625 11.828125 0.515625 Z M 11.828125 -3.890625 C 13.335938 -3.890625 14.492188 -4.210938 15.296875 -4.859375 C 16.097656 -5.515625 16.632812 -6.34375 16.90625 -7.34375 C 17.175781 -8.351562 17.3125 -9.375 17.3125 -10.40625 C 17.3125 -11.457031 17.175781 -12.492188 16.90625 -13.515625 C 16.632812 -14.546875 16.097656 -15.382812 15.296875 -16.03125 C 14.492188 -16.6875 13.335938 -17.015625 11.828125 -17.015625 C 10.296875 -17.015625 9.128906 -16.679688 8.328125 -16.015625 C 7.523438 -15.347656 6.976562 -14.507812 6.6875 -13.5 C 6.394531 -12.488281 6.25 -11.457031 6.25 -10.40625 C 6.25 -9.375 6.394531 -8.351562 6.6875 -7.34375 C 6.976562 -6.34375 7.523438 -5.515625 8.328125 -4.859375 C 9.128906 -4.210938 10.296875 -3.890625 11.828125 -3.890625 Z M 11.828125 -3.890625 "/></g></g></g></svg>